<svg xmlns="http://www.w3.org/2000/svg" width="40" height="29pt" viewBox="0 0 30 29"><path d="M21.852 4.863v4.203h-13.7V4.863zm-1.23 2.102a.903.903 0 00-.278-.645.96.96 0 00-1.336 0 .903.903 0 00-.278.645c0 .242.102.476.278.644a.966.966 0 001.336 0 .896.896 0 00.277-.644zm-4.677 0a.903.903 0 00-.277-.645.96.96 0 00-1.336 0 .903.903 0 00-.277.645c0 .242.101.476.277.644a.96.96 0 001.336 0 .896.896 0 00.277-.644zm-4.675 0a.903.903 0 00-.278-.645.966.966 0 00-1.336 0 .903.903 0 00-.277.645c0 .242.101.476.277.644a.96.96 0 001.336 0 .896.896 0 00.278-.644zm0 0" fill="#f77e21"/><path d="M25.746 17.828v1.785H4.254v-1.785c1.203-.055 1.855-.707 2.336-1.187.437-.442.648-.633 1.137-.633.484 0 .699.191 1.136.633.5.504 1.188 1.191 2.5 1.191 1.313 0 2-.687 2.5-1.191.438-.442.653-.633 1.137-.633.488 0 .703.191 1.137.633.504.504 1.191 1.191 2.5 1.191 1.312 0 2-.687 2.5-1.191.437-.442.652-.633 1.14-.633.485 0 .7.191 1.137.633.48.48 1.129 1.132 2.332 1.187zm0 0" fill="#a97819"/><path d="M25.746 13.89V16c-.375-.043-.586-.242-.973-.625-.5-.504-1.187-1.195-2.496-1.195-1.312 0-2 .691-2.5 1.195-.437.438-.652.633-1.14.633-.485 0-.7-.195-1.137-.633-.5-.504-1.188-1.195-2.5-1.195-1.313 0-1.996.691-2.5 1.195-.434.438-.648.633-1.137.633-.488 0-.699-.195-1.136-.633-.504-.504-1.188-1.195-2.5-1.195-1.313 0-2 .691-2.5 1.195-.387.383-.598.582-.973.625v-2.11a.93.93 0 00.5-.253.887.887 0 000-1.29.958.958 0 00-.5-.253V10.89h21.492v1.203a.958.958 0 00-.5.254.903.903 0 00-.277.644c0 .242.101.477.277.645a.944.944 0 00.5.254zm-6.164-.898a.903.903 0 00-.277-.644.96.96 0 00-1.336 0 .903.903 0 00-.278.644c0 .242.102.477.278.645a.966.966 0 001.336 0 .896.896 0 00.277-.645zm-7.273 0a.903.903 0 00-.278-.644.96.96 0 00-1.336 0 .903.903 0 00-.277.644c0 .242.102.477.277.645a.96.96 0 001.336 0 .896.896 0 00.278-.645zm0 0" fill="#f5b543"/><path d="M29.031 19.613c.52 0 .946.41.946.914s-.426.914-.946.914H15.945v2.696h2.172c.524 0 .945.406.945.91 0 .508-.421.914-.945.914h-6.234c-.524 0-.945-.406-.945-.914 0-.504.421-.91.945-.91h2.172V21.44H.969c-.52 0-.946-.41-.946-.914s.426-.914.946-.914h1.394V9.98c0-.503.426-.914.946-.914h2.953V3.953c0-.508.422-.914.945-.914h15.586c.523 0 .945.406.945.914v5.113h2.953c.524 0 .946.41.946.914v9.633zm-3.285 0v-1.785c-1.203-.055-1.851-.707-2.332-1.187-.437-.442-.652-.633-1.137-.633-.488 0-.703.191-1.14.633-.5.504-1.188 1.191-2.5 1.191-1.309 0-1.996-.687-2.5-1.191-.434-.442-.649-.633-1.137-.633-.484 0-.7.191-1.137.633-.5.504-1.187 1.191-2.5 1.191-1.312 0-1.996-.687-2.5-1.191-.437-.442-.652-.633-1.136-.633-.489 0-.7.191-1.137.633-.48.48-1.133 1.132-2.336 1.187v1.785zm0-3.613v-2.11a.944.944 0 01-.5-.253.896.896 0 01-.277-.645c0-.238.101-.476.277-.644a.958.958 0 01.5-.254V10.89H4.254v1.203a.958.958 0 01.5.254.887.887 0 010 1.289.93.93 0 01-.5.254V16c.375-.043.586-.242.973-.625.5-.504 1.187-1.195 2.5-1.195 1.312 0 1.996.691 2.5 1.195.437.438.648.633 1.136.633.489 0 .7-.195 1.137-.633.504-.504 1.188-1.195 2.5-1.195 1.313 0 2 .691 2.5 1.195.438.438.652.633 1.137.633.488 0 .703-.195 1.14-.633.5-.504 1.188-1.195 2.5-1.195 1.309 0 1.996.691 2.496 1.195.387.383.598.582.973.625zm-3.894-6.934V4.863h-13.7v4.203zm0 0"/><path d="M20.344 6.32a.903.903 0 01.277.645.896.896 0 01-.277.644.96.96 0 01-1.336 0 .896.896 0 01-.278-.644c0-.238.102-.477.278-.645a.966.966 0 011.336 0zm0 0M19.305 12.348a.903.903 0 01.277.644.896.896 0 01-.277.645.96.96 0 01-1.336 0 .896.896 0 01-.278-.645c0-.238.102-.476.278-.644a.966.966 0 011.336 0zm0 0M15.668 6.32a.903.903 0 01.277.645.896.896 0 01-.277.644.96.96 0 01-1.336 0 .896.896 0 01-.277-.644c0-.238.101-.477.277-.645a.96.96 0 011.336 0zm0 0M12.031 12.348a.903.903 0 01.278.644.896.896 0 01-.278.645.966.966 0 01-1.336 0 .896.896 0 01-.277-.645c0-.238.102-.476.277-.644a.96.96 0 011.336 0zm0 0M10.992 6.32a.903.903 0 01.278.645.896.896 0 01-.278.644.96.96 0 01-1.336 0 .896.896 0 01-.277-.644c0-.238.101-.477.277-.645a.96.96 0 011.336 0zm0 0"/></svg>