<svg xmlns="http://www.w3.org/2000/svg" width="35pt" height="35pt" viewBox="0 0 35 35"><path d="M35 19.996a5.473 5.473 0 00-.25-1.61l-2.723-8.671a5.117 5.117 0 00-4.898-3.602H3.297A3.303 3.303 0 000 9.414v12.797a3.303 3.303 0 003.297 3.297h.687a4.235 4.235 0 004.141 3.379 4.235 4.235 0 004.14-3.38h9.852a4.235 4.235 0 004.14 3.38 4.238 4.238 0 004.157-3.453 5.436 5.436 0 002.992-1.543A5.444 5.444 0 0035 19.996zm-11.078 4.66a2.337 2.337 0 114.674.003 2.337 2.337 0 01-4.674-.003zm-13.461 0a2.34 2.34 0 01-2.336 2.34 2.337 2.337 0 010-4.676 2.337 2.337 0 012.336 2.336zm19.871-1.129a4.237 4.237 0 00-4.074-3.097 4.236 4.236 0 00-4.098 3.187h-9.937a4.236 4.236 0 00-4.098-3.187 4.236 4.236 0 00-4.098 3.187h-.73a1.41 1.41 0 01-1.406-1.406v-2.977H33.02c.058.254.09.512.09.774a3.554 3.554 0 01-1.044 2.55 3.576 3.576 0 01-1.734.97zM3.297 8.004h23.832c.91 0 1.75.375 2.348 1.004h-5.399a.944.944 0 00-.945.945v5.387c0 .52.422.941.945.941h8.031l.332 1.067H1.891V9.414c0-.777.632-1.41 1.406-1.41zm27.121 2.894l1.098 3.497h-6.493v-3.497zm0 0" fill="#fff"/></svg>