<svg xmlns="http://www.w3.org/2000/svg" width="35pt" height="35pt" viewBox="0 0 35 35"><path d="M17.5 0C7.852 0 0 7.852 0 17.5S7.852 35 17.5 35 35 27.148 35 17.5 27.148 0 17.5 0zM6.004 10.09c.101-.23.262-.43.465-.578 1.39-1.004 2.867-.614 3.613.36.75-.977 2.234-1.368 3.633-.349.203.153.363.356.46.59 1.434 3.512-3.835 6.438-4.085 6.57a.012.012 0 01-.016 0c-.25-.136-5.558-3.113-4.07-6.593zM17.5 28.5a8.503 8.503 0 01-8.125-6h16.25a8.503 8.503 0 01-8.125 6zm7.418-11.809s-5.61-3.039-4.078-6.609c.098-.227.258-.422.457-.566 1.394-1.008 2.871-.621 3.621.355.75-.98 2.234-1.367 3.633-.344.203.149.363.348.457.582 1.476 3.598-4.09 6.582-4.09 6.582zm0 0" fill="#fff"/></svg>