<svg xmlns="http://www.w3.org/2000/svg" width="35pt" height="35pt" viewBox="0 0 35 35"><g fill="#fff"><path d="M25.762 7.574a.68.68 0 00-.965 0l-.031.031a.68.68 0 00.004.965.683.683 0 00.965 0l.03-.03a.68.68 0 00-.003-.966zm0 0"/><path d="M29.16 11.938a24.37 24.37 0 005.805-9.301.688.688 0 00-.164-.703.693.693 0 00-.707-.164 24.13 24.13 0 00-7.516 4.19.683.683 0 10.863 1.06 22.85 22.85 0 015.7-3.426 23.078 23.078 0 01-12.325 12.32 22.737 22.737 0 013.32-5.562.686.686 0 00-.1-.961.687.687 0 00-.966.101 24.139 24.139 0 00-4.078 7.38.68.68 0 00-.02.085c-.226.223-.456.445-.683.664a20.724 20.724 0 001.023-6.41c0-3.066-.695-6.133-2.007-8.871a.683.683 0 00-.617-.387.683.683 0 00-.618.387 20.641 20.641 0 00-2.008 8.87c0 2.966.653 5.935 1.883 8.606a119.275 119.275 0 01-4.05 3.52c.71-2.2 1.078-4.52 1.078-6.84 0-3.308-.75-6.617-2.168-9.574a.684.684 0 00-1.23 0 22.266 22.266 0 00-2.169 9.574c0 3.074.649 6.149 1.88 8.942a118.322 118.322 0 01-4.333 3.218c.598-1.867.91-3.84.91-5.808 0-2.82-.64-5.645-1.847-8.164a.686.686 0 00-.618-.391.686.686 0 00-.617.39 19.013 19.013 0 00-1.847 8.165c0 2.578.535 5.156 1.546 7.504-.714.476-1.437.949-2.164 1.41a.682.682 0 10.735 1.152c.746-.473 1.492-.96 2.23-1.453a18.96 18.96 0 0016.238-.043.678.678 0 00.387-.617c0-.262-.148-.5-.386-.613a18.96 18.96 0 00-12.477-1.352 110.453 110.453 0 003.094-2.332 20.66 20.66 0 008.629 1.894c3.062 0 6.132-.695 8.87-2.007a.685.685 0 000-1.235 20.65 20.65 0 00-14.238-1.293 122.35 122.35 0 003.227-2.816 20.402 20.402 0 005.898 1.691c.032.004.059.008.09.008a.685.685 0 00.086-1.363 19.209 19.209 0 01-4.351-1.094 19.388 19.388 0 0113.687 0 19.287 19.287 0 01-4.281 1.086.681.681 0 00-.586.766.685.685 0 00.766.59c2.136-.29 4.199-.903 6.128-1.825a.687.687 0 000-1.234 20.641 20.641 0 00-8.87-2.008 20.79 20.79 0 00-5.864.852c.317-.305.633-.614.945-.922a24.406 24.406 0 008.887-5.657zM3.398 28.968a17.734 17.734 0 010-12.241 17.734 17.734 0 010 12.242zm14.075 1.833a17.723 17.723 0 01-12.239 0 17.768 17.768 0 0112.239 0zm-7.282-6.746a21.017 21.017 0 010-15.117 21.017 21.017 0 010 15.117zm15.414 1.718a19.377 19.377 0 01-13.683 0 19.377 19.377 0 0113.683 0zm-8.918-7.718a19.377 19.377 0 010-13.684 19.377 19.377 0 010 13.684zm0 0"/><path d="M25.426 21.543h-.028a.685.685 0 00-.675.695.687.687 0 00.683.672h.039a.679.679 0 00.672-.691.68.68 0 00-.691-.676zm0 0"/></g></svg>