<svg xmlns="http://www.w3.org/2000/svg" width="25pt" height="25pt" viewBox="0 0 25 25"><path d="M24.941 9.625c-.382-1.2-2.492-1.473-4.726-1.77-1.227-.16-2.617-.343-3.035-.652-.422-.308-1.012-1.578-1.535-2.703C14.695 2.46 13.8.531 12.543.531L12.52.527c-1.243.02-2.153 1.922-3.118 3.942-.53 1.117-1.132 2.383-1.554 2.691-.426.3-1.82.473-3.047.621C2.57 8.055.457 8.31.062 9.5c-.394 1.191 1.149 2.66 2.782 4.207.898.852 1.914 1.816 2.074 2.313.16.5-.113 1.875-.348 3.085-.433 2.207-.843 4.297.168 5.047.242.172.547.258.907.25 1.03-.015 2.52-.82 3.953-1.597 1.078-.59 2.297-1.25 2.843-1.258.524 0 1.746.683 2.829 1.285 1.468.813 2.988 1.656 4.023 1.64.324-.003.598-.085.824-.25 1.016-.734.63-2.82.219-5.035-.223-1.214-.477-2.597-.316-3.093.164-.492 1.19-1.446 2.097-2.293 1.649-1.535 3.203-2.977 2.824-4.176zm0 0" fill="#fff"/></svg>