<svg xmlns="http://www.w3.org/2000/svg" width="35pt" height="35pt" viewBox="0 0 35 35"><g fill="#fff"><path d="M17.5 0C7.836 0 0 7.836 0 17.5S7.836 35 17.5 35 35 27.164 35 17.5 27.164 0 17.5 0zm.742 32.094v-2.606a.743.743 0 10-1.484 0v2.606C9.27 31.719 3.28 25.73 2.902 18.242h2.496a.742.742 0 100-1.484H2.902c.38-7.492 6.371-13.48 13.86-13.86 0 .016-.004.024-.004.04v2.718a.742.742 0 101.484 0V2.938c0-.012-.008-.024-.008-.036 7.489.375 13.48 6.364 13.86 13.856h-2.512a.742.742 0 100 1.484h2.512c-.375 7.488-6.364 13.477-13.852 13.852zm0 0"/><path d="M18.871 18.082c.05-.148.09-.3.09-.465 0-.808-.652-1.46-1.461-1.46s-1.46.652-1.46 1.46c0 .809.651 1.465 1.46 1.465.078 0 .145-.035.223-.047l.03.047 6.06 5.254 1.632.43-.808-1.684zm0 0"/></g></svg>