<svg xmlns="http://www.w3.org/2000/svg" width="35pt" height="35pt" viewBox="0 0 35 35"><g fill="#fff"><path d="M31.098 5.367A15.566 15.566 0 0019.434.105a.87.87 0 00-.868.868v14.699c0 .476.391.867.868.867h14.699a.87.87 0 00.867-.867 15.573 15.573 0 00-3.902-10.305zM20.3 14.797V1.859a13.854 13.854 0 019.496 4.649 13.807 13.807 0 013.433 8.289zm0 0"/><path d="M30.258 18.469a.87.87 0 00-.867.867c0 7.625-6.2 13.832-13.832 13.832-7.63 0-13.825-6.207-13.825-13.832 0-7.633 6.2-13.832 13.825-13.832a.87.87 0 00.867-.867.87.87 0 00-.867-.867 15.44 15.44 0 00-11 4.558A15.465 15.465 0 000 19.336c0 4.156 1.617 8.066 4.559 11a15.465 15.465 0 0011.007 4.559c4.157 0 8.067-1.618 11.008-4.56a15.465 15.465 0 004.559-11.007.875.875 0 00-.875-.86zm0 0"/><path d="M15.559 7.441a.87.87 0 00-.868.868c0 .476.391.867.868.867a.87.87 0 00.867-.867.865.865 0 00-.867-.868zm0 0M15.559 11.117a.87.87 0 00-.868.867c0 .477.391.868.868.868a.87.87 0 00.867-.868.865.865 0 00-.867-.867zm0 0M15.559 14.79a.87.87 0 00-.868.866c0 .477.391.867.868.867a.87.87 0 00.867-.867.865.865 0 00-.867-.867zm0 0M14.953 18.723a.866.866 0 00.613 1.48.866.866 0 00.614-1.48.866.866 0 00-.614-.254.84.84 0 00-.613.254zm0 0M23.777 19.336a.87.87 0 00-.867-.867.87.87 0 00-.867.867c0 .477.39.867.867.867a.87.87 0 00.867-.867zm0 0M20.105 19.336a.87.87 0 00-.867-.867.87.87 0 00-.867.867c0 .477.39.867.867.867a.87.87 0 00.867-.867zm0 0M27.457 19.336a.87.87 0 00-1.738 0 .87.87 0 001.738 0zm0 0"/></g></svg>