<?xml version="1.0" encoding="UTF-8"?>
<svg xmlns="http://www.w3.org/2000/svg" xmlns:xlink="http://www.w3.org/1999/xlink" width="80pt" height="80pt" viewBox="0 0 80 80" version="1.1">
<g id="surface1">
<path style=" stroke:none;fill-rule:nonzero;fill:rgb(96.470588%,74.509804%,83.921569%);fill-opacity:1;" d="M 16.5 9.675781 C 15.785156 9.675781 15.207031 10.257812 15.207031 10.972656 L 15.207031 23.414062 C 15.207031 24.128906 15.785156 24.707031 16.5 24.707031 C 17.21875 24.707031 17.796875 24.128906 17.796875 23.414062 L 17.796875 10.972656 C 17.796875 10.257812 17.21875 9.675781 16.5 9.675781 Z M 16.5 9.675781 "/>
<path style=" stroke:none;fill-rule:nonzero;fill:rgb(96.470588%,74.509804%,83.921569%);fill-opacity:1;" d="M 79.546875 1.695312 C 79.261719 1.449219 78.882812 1.339844 78.507812 1.398438 C 69.996094 2.699219 65.601562 6.828125 64.277344 8.296875 C 64.25 8.296875 64.21875 8.292969 64.191406 8.292969 L 59.453125 8.292969 L 36.933594 4.738281 C 34.449219 4.347656 31.914062 4.148438 29.402344 4.148438 L 8.207031 4.148438 C 6.34375 4.148438 4.769531 5.410156 4.296875 7.121094 C 1.78125 8.0625 0 12.078125 0 17.191406 C 0 22.304688 1.78125 26.320312 4.296875 27.261719 C 4.769531 28.976562 6.34375 30.238281 8.207031 30.238281 L 14.386719 30.238281 L 16.679688 34.066406 C 17.453125 35.351562 17.679688 36.859375 17.3125 38.316406 L 17.285156 38.425781 C 16.824219 40.28125 16.585938 42.191406 16.585938 44.105469 L 16.585938 69.027344 C 16.585938 70.8125 17.746094 72.332031 19.351562 72.875 L 19.351562 74.558594 C 19.351562 76.796875 21.171875 78.617188 23.414062 78.617188 C 25.652344 78.617188 27.472656 76.796875 27.472656 74.558594 L 27.472656 72.875 C 29.078125 72.332031 30.238281 70.8125 30.238281 69.027344 L 30.238281 44.105469 C 30.238281 42.191406 30.003906 40.28125 29.539062 38.425781 L 29.511719 38.316406 C 29.148438 36.859375 29.371094 35.351562 30.144531 34.066406 L 32.5 30.136719 C 33.988281 30.039062 35.46875 29.878906 36.933594 29.648438 L 59.453125 26.089844 L 64.191406 26.089844 C 64.21875 26.089844 64.25 26.089844 64.277344 26.089844 C 65.601562 27.558594 69.996094 31.683594 78.507812 32.988281 C 78.574219 32.996094 78.640625 33.003906 78.703125 33.003906 C 79.011719 33.003906 79.3125 32.894531 79.546875 32.6875 C 79.835938 32.441406 80 32.085938 80 31.707031 L 80 2.679688 C 80 2.300781 79.835938 1.941406 79.546875 1.695312 Z M 64.191406 23.5 L 60.648438 23.5 L 60.648438 10.886719 L 64.191406 10.886719 C 67.667969 10.886719 70.496094 13.714844 70.496094 17.191406 C 70.496094 20.667969 67.667969 23.5 64.191406 23.5 Z M 2.589844 17.191406 C 2.589844 15.007812 2.992188 12.890625 3.6875 11.382812 C 3.832031 11.070312 3.984375 10.792969 4.148438 10.546875 L 4.148438 23.835938 C 3.984375 23.59375 3.832031 23.3125 3.6875 23.003906 C 2.992188 21.496094 2.589844 19.375 2.589844 17.191406 Z M 23.414062 76.027344 C 22.601562 76.027344 21.945312 75.367188 21.945312 74.558594 L 21.945312 73.089844 L 24.882812 73.089844 L 24.882812 74.558594 C 24.882812 75.367188 24.222656 76.027344 23.414062 76.027344 Z M 27.921875 32.730469 C 26.792969 34.613281 26.464844 36.816406 26.996094 38.945312 L 27.023438 39.054688 C 27.4375 40.703125 27.644531 42.402344 27.644531 44.105469 L 27.644531 69.027344 C 27.644531 69.839844 26.988281 70.496094 26.175781 70.496094 L 20.648438 70.496094 C 19.839844 70.496094 19.179688 69.839844 19.179688 69.027344 L 19.179688 44.105469 C 19.179688 42.402344 19.386719 40.707031 19.800781 39.054688 L 19.828125 38.945312 C 20.359375 36.816406 20.03125 34.609375 18.902344 32.730469 L 17.40625 30.238281 L 29.402344 30.238281 C 29.40625 30.238281 29.410156 30.238281 29.417969 30.238281 Z M 36.527344 27.085938 C 34.179688 27.457031 31.78125 27.644531 29.402344 27.644531 L 8.207031 27.644531 C 7.398438 27.644531 6.738281 26.988281 6.738281 26.175781 L 6.738281 8.207031 C 6.738281 7.398438 7.398438 6.738281 8.207031 6.738281 L 29.402344 6.738281 C 31.78125 6.738281 34.179688 6.925781 36.527344 7.296875 L 58.054688 10.695312 L 58.054688 23.6875 Z M 77.410156 30.15625 C 73.457031 29.335938 70.667969 27.855469 68.964844 26.695312 C 68.339844 26.269531 67.816406 25.859375 67.390625 25.492188 C 70.71875 24.207031 73.089844 20.972656 73.089844 17.191406 C 73.089844 13.414062 70.71875 10.179688 67.390625 8.890625 C 67.816406 8.523438 68.339844 8.113281 68.964844 7.6875 C 70.667969 6.527344 73.457031 5.050781 77.410156 4.226562 Z M 77.410156 30.15625 "/>
<path style=" stroke:none;fill-rule:nonzero;fill:rgb(96.470588%,74.509804%,83.921569%);fill-opacity:1;" d="M 24.792969 44.234375 L 22.03125 44.234375 C 21.3125 44.234375 20.734375 44.8125 20.734375 45.527344 C 20.734375 46.246094 21.3125 46.824219 22.03125 46.824219 L 24.792969 46.824219 C 25.511719 46.824219 26.089844 46.246094 26.089844 45.527344 C 26.089844 44.8125 25.511719 44.234375 24.792969 44.234375 Z M 24.792969 44.234375 "/>
<path style=" stroke:none;fill-rule:nonzero;fill:rgb(96.470588%,74.509804%,83.921569%);fill-opacity:1;" d="M 24.792969 49.761719 L 22.03125 49.761719 C 21.3125 49.761719 20.734375 50.34375 20.734375 51.058594 C 20.734375 51.773438 21.3125 52.355469 22.03125 52.355469 L 24.792969 52.355469 C 25.511719 52.355469 26.089844 51.773438 26.089844 51.058594 C 26.089844 50.34375 25.511719 49.761719 24.792969 49.761719 Z M 24.792969 49.761719 "/>
</g>
</svg>
