<?xml version="1.0" encoding="UTF-8"?>
<svg xmlns="http://www.w3.org/2000/svg" xmlns:xlink="http://www.w3.org/1999/xlink" width="50pt" height="50pt" viewBox="0 0 50 50" version="1.1">
<g id="surface1">
<path style=" stroke:none;fill-rule:nonzero;fill:rgb(96.470588%,74.509804%,83.921569%);fill-opacity:1;" d="M 14.511719 23.074219 L 13.960938 23.074219 L 13.960938 18.632812 C 13.960938 18.105469 13.539062 17.679688 13.011719 17.679688 L 12.925781 17.679688 L 12.925781 8.59375 C 12.925781 8.230469 12.726562 7.902344 12.402344 7.738281 L 5.023438 4.050781 C 4.730469 3.902344 4.378906 3.917969 4.097656 4.09375 C 3.816406 4.265625 3.644531 4.574219 3.644531 4.90625 L 3.644531 17.679688 L 3.5625 17.679688 C 3.039062 17.679688 2.609375 18.105469 2.609375 18.632812 L 2.609375 23.074219 L 2.0625 23.074219 C 1.535156 23.074219 1.109375 23.5 1.109375 24.027344 L 1.109375 49.046875 C 1.109375 49.574219 1.535156 50 2.0625 50 L 14.511719 50 C 15.035156 50 15.464844 49.574219 15.464844 49.046875 L 15.464844 24.027344 C 15.464844 23.5 15.035156 23.074219 14.511719 23.074219 Z M 5.550781 6.445312 L 11.023438 9.183594 L 11.023438 17.679688 L 5.550781 17.679688 Z M 4.515625 19.585938 L 12.054688 19.585938 L 12.054688 23.074219 L 4.515625 23.074219 Z M 13.558594 48.09375 L 3.015625 48.09375 L 3.015625 24.980469 L 13.558594 24.980469 Z M 13.558594 48.09375 "/>
<path style=" stroke:none;fill-rule:nonzero;fill:rgb(96.470588%,74.509804%,83.921569%);fill-opacity:1;" d="M 47.9375 38.667969 L 16.980469 38.667969 C 16.453125 38.667969 16.023438 39.097656 16.023438 39.621094 C 16.023438 40.148438 16.453125 40.578125 16.980469 40.578125 L 46.421875 40.578125 L 46.203125 41.027344 C 45.003906 43.515625 42.449219 45.125 39.6875 45.125 L 16.980469 45.125 C 16.453125 45.125 16.023438 45.550781 16.023438 46.078125 C 16.023438 46.605469 16.453125 47.03125 16.980469 47.03125 L 39.6875 47.03125 C 43.175781 47.03125 46.410156 45 47.917969 41.855469 L 48.796875 40.035156 C 48.9375 39.742188 48.917969 39.390625 48.746094 39.117188 C 48.570312 38.835938 48.265625 38.667969 47.9375 38.667969 Z M 47.9375 38.667969 "/>
<path style=" stroke:none;fill-rule:nonzero;fill:rgb(96.470588%,74.509804%,83.921569%);fill-opacity:1;" d="M 14.777344 7.007812 C 18.332031 3.71875 22.960938 1.90625 27.804688 1.90625 C 38.382812 1.90625 46.984375 10.511719 46.984375 21.085938 C 46.984375 26.789062 44.472656 32.15625 40.09375 35.816406 C 39.6875 36.152344 39.632812 36.753906 39.96875 37.15625 C 40.160156 37.382812 40.429688 37.5 40.703125 37.5 C 40.917969 37.5 41.136719 37.425781 41.3125 37.277344 C 46.128906 33.253906 48.890625 27.355469 48.890625 21.085938 C 48.890625 9.457031 39.429688 0 27.804688 0 C 22.476562 0 17.390625 1.992188 13.484375 5.609375 C 13.09375 5.964844 13.074219 6.570312 13.429688 6.957031 C 13.789062 7.34375 14.390625 7.367188 14.777344 7.007812 Z M 14.777344 7.007812 "/>
<path style=" stroke:none;fill-rule:nonzero;fill:rgb(96.470588%,74.509804%,83.921569%);fill-opacity:1;" d="M 27.804688 5.871094 C 36.195312 5.871094 43.019531 12.695312 43.019531 21.085938 C 43.019531 29.476562 36.195312 36.300781 27.804688 36.300781 C 24.03125 36.300781 20.414062 34.914062 17.617188 32.386719 C 17.226562 32.035156 16.625 32.066406 16.273438 32.457031 C 15.917969 32.847656 15.949219 33.449219 16.339844 33.804688 C 19.488281 36.644531 23.558594 38.207031 27.804688 38.207031 C 37.246094 38.207031 44.925781 30.527344 44.925781 21.085938 C 44.925781 11.644531 37.246094 3.964844 27.804688 3.964844 C 22.382812 3.964844 17.222656 6.574219 14.007812 10.945312 C 13.695312 11.371094 13.785156 11.96875 14.210938 12.28125 C 14.632812 12.59375 15.230469 12.5 15.542969 12.078125 C 18.402344 8.191406 22.984375 5.871094 27.804688 5.871094 Z M 27.804688 5.871094 "/>
<path style=" stroke:none;fill-rule:nonzero;fill:rgb(96.470588%,74.509804%,83.921569%);fill-opacity:1;" d="M 38.292969 13.578125 L 20.894531 30.972656 C 20.523438 31.34375 20.523438 31.949219 20.894531 32.320312 C 21.085938 32.503906 21.328125 32.597656 21.570312 32.597656 C 21.8125 32.597656 22.058594 32.503906 22.246094 32.320312 L 39.640625 14.925781 C 40.011719 14.554688 40.011719 13.949219 39.640625 13.578125 C 39.269531 13.207031 38.664062 13.207031 38.292969 13.578125 Z M 38.292969 13.578125 "/>
<path style=" stroke:none;fill-rule:nonzero;fill:rgb(96.470588%,74.509804%,83.921569%);fill-opacity:1;" d="M 26.195312 31.089844 C 25.820312 31.460938 25.820312 32.066406 26.195312 32.4375 C 26.378906 32.621094 26.625 32.71875 26.867188 32.71875 C 27.113281 32.71875 27.355469 32.621094 27.542969 32.4375 L 40.601562 19.378906 C 40.972656 19.007812 40.972656 18.402344 40.601562 18.03125 C 40.230469 17.65625 39.625 17.65625 39.253906 18.03125 Z M 26.195312 31.089844 "/>
</g>
</svg>
