<?xml version="1.0" encoding="UTF-8"?>
<svg xmlns="http://www.w3.org/2000/svg" xmlns:xlink="http://www.w3.org/1999/xlink" width="50pt" height="50pt" viewBox="0 0 50 50" version="1.1">
<g id="surface1">
<path style=" stroke:none;fill-rule:nonzero;fill:rgb(11.372549%,10.588235%,21.960784%);fill-opacity:1;" d="M 48.59375 45.8125 L 26.777344 2.1875 C 25.691406 0.300781 23.621094 1.171875 23.210938 2.1875 L 1.269531 46.035156 C 0.515625 47.792969 2.050781 48.976562 3.054688 48.914062 L 46.921875 48.914062 C 46.933594 48.914062 46.933594 48.914062 46.945312 48.914062 C 48.515625 49.003906 49.460938 47.140625 48.59375 45.8125 Z M 6.28125 44.941406 L 24.988281 7.539062 L 43.703125 44.941406 Z M 6.28125 44.941406 "/>
<path style=" stroke:none;fill-rule:nonzero;fill:rgb(11.372549%,10.588235%,21.960784%);fill-opacity:1;" d="M 23 19.851562 L 23 32.148438 C 23 33.253906 23.886719 34.140625 24.992188 34.140625 C 26.09375 34.140625 26.984375 33.25 26.984375 32.148438 L 26.984375 19.855469 C 26.984375 18.75 26.09375 17.863281 24.992188 17.863281 C 23.886719 17.863281 23 18.75 23 19.855469 Z M 23 19.851562 "/>
<path style=" stroke:none;fill-rule:nonzero;fill:rgb(11.372549%,10.588235%,21.960784%);fill-opacity:1;" d="M 26.992188 39.160156 C 26.992188 38.054688 26.097656 37.15625 24.992188 37.15625 C 23.882812 37.15625 22.988281 38.054688 22.988281 39.160156 C 22.988281 40.265625 23.882812 41.164062 24.992188 41.164062 C 26.097656 41.164062 26.992188 40.265625 26.992188 39.160156 Z M 26.992188 39.160156 "/>
</g>
</svg>
