<svg xmlns="http://www.w3.org/2000/svg" width="35pt" height="35pt" viewBox="0 0 35 35"><path d="M33.836 31.73a1.167 1.167 0 000-2.332h-.441c.19-.449.296-.945.296-1.464V16.27c.356-.2.602-.582.602-1.02 0-.031-.004-.059-.004-.09a4.08 4.08 0 00-4.07-3.992h-1.856a1.63 1.63 0 00-1.582-2.016 1.63 1.63 0 00-1.582 2.016h-1.855a4.078 4.078 0 00-4.07 4.082c0 .438.242.816.597 1.016v11.668c0 .52.106 1.015.297 1.468h-2.605c.367-.66.582-1.418.582-2.226V11.934c.449-.16.773-.59.773-1.098 0-.027 0-.055-.004-.086-.047-2.672-2.227-4.836-4.906-4.836h-2.82a1.814 1.814 0 00-1.61-2.645 1.813 1.813 0 00-1.605 2.645h-2.82c-2.708 0-4.907 2.207-4.907 4.922 0 .508.32.934.77 1.098v15.242c0 .808.214 1.566.582 2.226h-.434a1.164 1.164 0 000 2.328zm-7.055-21.3a.35.35 0 01.352.351.35.35 0 01-.352.352.35.35 0 01-.351-.352.35.35 0 01.351-.351zM9.578 4.914c.094 0 .168.074.168.168a.167.167 0 01-.168.168.17.17 0 01-.168-.168.17.17 0 01.168-.168zm13.766 8.582h6.875c.515 0 .98.227 1.3.586h-9.476a1.74 1.74 0 011.3-.586zM5.152 8.242h8.856a2.58 2.58 0 012.305 1.43H2.848a2.58 2.58 0 012.304-1.43zm.418 21.156a2.224 2.224 0 01-2.222-2.222V12h12.464v15.176a2.224 2.224 0 01-2.222 2.222zm18.098 0a1.465 1.465 0 01-1.465-1.464v-11.52h9.156v11.52c0 .808-.656 1.464-1.464 1.464zm0 0" fill="#fff"/></svg>