<?xml version="1.0" encoding="UTF-8"?>
<svg xmlns="http://www.w3.org/2000/svg" xmlns:xlink="http://www.w3.org/1999/xlink" width="16pt" height="16pt" viewBox="0 0 16 16" version="1.1">
<g id="surface1">
<path style=" stroke:none;fill-rule:nonzero;fill:rgb(100%,100%,100%);fill-opacity:1;" d="M 2.460938 8 L 8.648438 1.722656 C 9.039062 1.328125 9.039062 0.6875 8.648438 0.296875 C 8.257812 -0.0976562 7.628906 -0.0976562 7.238281 0.296875 L 0.347656 7.285156 C -0.0273438 7.664062 -0.03125 8.332031 0.347656 8.714844 L 7.238281 15.703125 C 7.628906 16.097656 8.261719 16.097656 8.652344 15.703125 C 9.042969 15.3125 9.042969 14.671875 8.652344 14.277344 Z M 2.460938 8 "/>
<path style=" stroke:none;fill-rule:nonzero;fill:rgb(100%,100%,100%);fill-opacity:1;" d="M 9.453125 8 L 15.640625 1.722656 C 16.03125 1.328125 16.03125 0.6875 15.640625 0.296875 C 15.25 -0.0976562 14.621094 -0.0976562 14.230469 0.296875 L 7.339844 7.285156 C 6.964844 7.664062 6.960938 8.332031 7.339844 8.714844 L 14.230469 15.703125 C 14.621094 16.097656 15.253906 16.097656 15.640625 15.703125 C 16.03125 15.3125 16.03125 14.671875 15.640625 14.277344 Z M 9.453125 8 "/>
</g>
</svg>
