<?xml version="1.0" encoding="UTF-8"?>
<svg xmlns="http://www.w3.org/2000/svg" xmlns:xlink="http://www.w3.org/1999/xlink" width="16pt" height="16pt" viewBox="0 0 16 16" version="1.1">
<g id="surface1">
<path style=" stroke:none;fill-rule:nonzero;fill:rgb(100%,100%,100%);fill-opacity:1;" d="M 15.65625 7.285156 L 8.761719 0.296875 C 8.371094 -0.0976562 7.738281 -0.0976562 7.347656 0.296875 C 6.957031 0.6875 6.957031 1.328125 7.347656 1.722656 L 13.539062 8 L 7.347656 14.277344 C 6.957031 14.671875 6.957031 15.3125 7.347656 15.703125 C 7.738281 16.097656 8.371094 16.097656 8.761719 15.703125 L 15.652344 8.714844 C 16.03125 8.335938 16.03125 7.667969 15.65625 7.285156 Z M 15.65625 7.285156 "/>
<path style=" stroke:none;fill-rule:nonzero;fill:rgb(100%,100%,100%);fill-opacity:1;" d="M 8.660156 7.285156 L 1.769531 0.296875 C 1.378906 -0.0976562 0.746094 -0.0976562 0.359375 0.296875 C -0.03125 0.6875 -0.03125 1.328125 0.359375 1.722656 L 6.546875 8 L 0.355469 14.277344 C -0.0351562 14.671875 -0.0351562 15.3125 0.355469 15.703125 C 0.746094 16.097656 1.378906 16.097656 1.769531 15.703125 L 8.660156 8.714844 C 9.039062 8.335938 9.039062 7.667969 8.660156 7.285156 Z M 8.660156 7.285156 "/>
</g>
</svg>
