<svg xmlns="http://www.w3.org/2000/svg" width="80pt" height="80pt" viewBox="0 0 80 80"><path d="M33.39 67.18c-14.984 0-27.18-12.188-27.18-27.176 0-14.992 12.192-27.188 27.18-27.188 7.497 0 14.294 3.047 19.212 7.97l4.39-4.384c-6.047-6.047-14.39-9.793-23.601-9.793C14.977 6.61 0 21.586 0 40.004 0 58.414 14.973 73.39 33.39 73.39c16.891 0 30.891-12.614 33.083-28.914l-6.157-.832C58.536 56.91 47.136 67.18 33.391 67.18zm5.653-33.332c-1.238 0-2.242-1-2.242-2.239a2.246 2.246 0 012.242-2.246 2.246 2.246 0 012.246 2.246c0 .203-.043.391-.09.575l7.555-7.551a21.652 21.652 0 00-15.371-6.367c-12.004 0-21.73 9.73-21.73 21.738 0 12 9.726 21.73 21.73 21.73 11.015 0 20.09-8.199 21.515-18.82l-21.515-2.91 6.226-6.227c-.175.04-.359.07-.566.07zm-14.352 9.625a4.038 4.038 0 010-8.075 4.034 4.034 0 014.036 4.04 4.033 4.033 0 01-4.036 4.035zm2.606-11.868a2.604 2.604 0 010-5.207A2.609 2.609 0 0129.902 29a2.607 2.607 0 01-2.605 2.605zm10.129 15.286a2.486 2.486 0 012.484 2.484 2.486 2.486 0 01-4.973 0 2.484 2.484 0 012.489-2.484zm25.113-29.786l-8.852 8.176a3.045 3.045 0 011.184 2.407 3.058 3.058 0 01-3.059 3.058 3.061 3.061 0 01-2.55-1.375l-8.325 7.688 5.95.914a2.785 2.785 0 01-.465-1.512 2.692 2.692 0 012.695-2.691c1.488 0 2.7 1.203 2.7 2.69 0 .86-.41 1.618-1.044 2.114l8.106 1.246c-.02-.125-.043-.246-.043-.379 0-1.199.973-2.18 2.18-2.18 1.195 0 2.172.977 2.172 2.18 0 .368-.098.707-.258 1.008l7.593 1.168c.004 0 2.286-15.527-7.984-24.512zM41.203 32.18l-1.586 1.59a2.242 2.242 0 001.586-1.59zm28.07-20.805l-4.093 4.137c6.812 5.777 10.386 14.988 8.523 24.36a26.528 26.528 0 01-.351 1.53l5.734 1.016c.117-.473.223-.941.312-1.414 2.258-11.352-1.98-22.516-10.125-29.629zm0 0" fill="#810000"/></svg>