<svg xmlns="http://www.w3.org/2000/svg" width="80pt" height="80pt" viewBox="0 0 80 80"><path d="M79.676 76.219l-29.73-53.086a2.563 2.563 0 00-.485-.617c-.281-.262-6.035-5.422-15.672.773C30.891 18.15 27.543 10.5 27.5 2.527A2.542 2.542 0 0024.96 0h-.015a2.539 2.539 0 00-2.523 2.555c.047 9.05 3.68 17.476 6.871 23.144L9.316 5.727a2.537 2.537 0 00-3.59 0 2.537 2.537 0 000 3.59L25.7 29.292c-5.668-3.191-14.094-6.824-23.144-6.871h-.016a2.54 2.54 0 00-.012 5.078c7.961.043 15.598 3.379 20.743 6.277-2.086 3.227-3.098 6.36-3.02 9.371.102 3.887 2.047 6.079 2.266 6.313.18.191.386.355.617.484l53.086 29.73a2.532 2.532 0 003.035-.418 2.544 2.544 0 00.422-3.038zm0 0" fill="#810000"/></svg>