<?xml version="1.0" encoding="UTF-8"?>
<svg xmlns="http://www.w3.org/2000/svg" xmlns:xlink="http://www.w3.org/1999/xlink" width="80pt" height="80pt" viewBox="0 0 80 80" version="1.1">
<g id="surface1">
<path style=" stroke:none;fill-rule:nonzero;fill:rgb(50.588235%,0%,0%);fill-opacity:1;" d="M 80 38.828125 L 62.363281 16.386719 L 47.667969 16.386719 L 41.019531 5.0625 L 7.707031 5.0625 L 0 18.1875 L 0 65.113281 L 8.460938 65.113281 C 8.757812 70.578125 13.300781 74.9375 18.839844 74.9375 C 24.382812 74.9375 28.921875 70.578125 29.222656 65.113281 L 50.777344 65.113281 C 51.078125 70.578125 55.617188 74.9375 61.160156 74.9375 C 66.699219 74.9375 71.242188 70.578125 71.539062 65.113281 L 80 65.113281 Z M 27.628906 44.242188 L 21.097656 44.242188 L 21.097656 34.722656 L 27.628906 34.722656 Z M 16.148438 29.777344 L 16.148438 44.242188 L 4.949219 44.242188 L 4.949219 21.335938 L 43.777344 21.335938 L 43.777344 44.242188 L 32.574219 44.242188 L 32.574219 29.777344 Z M 10.539062 10.011719 L 38.1875 10.011719 L 41.929688 16.386719 L 6.796875 16.386719 Z M 18.839844 69.988281 C 15.835938 69.988281 13.390625 67.542969 13.390625 64.539062 C 13.390625 61.535156 15.835938 59.089844 18.839844 59.089844 C 21.84375 59.089844 24.289062 61.535156 24.289062 64.539062 C 24.289062 67.542969 21.84375 69.988281 18.839844 69.988281 Z M 18.839844 54.140625 C 14.667969 54.140625 11.066406 56.609375 9.410156 60.164062 L 4.949219 60.164062 L 4.949219 49.191406 L 43.777344 49.191406 L 43.777344 60.164062 L 28.269531 60.164062 C 26.613281 56.609375 23.011719 54.140625 18.839844 54.140625 Z M 61.160156 69.988281 C 58.15625 69.988281 55.710938 67.542969 55.710938 64.539062 C 55.710938 61.535156 58.15625 59.089844 61.160156 59.089844 C 64.164062 59.089844 66.609375 61.535156 66.609375 64.539062 C 66.609375 67.542969 64.164062 69.988281 61.160156 69.988281 Z M 75.050781 60.164062 L 70.589844 60.164062 C 68.933594 56.609375 65.332031 54.140625 61.160156 54.140625 C 56.988281 54.140625 53.386719 56.609375 51.730469 60.164062 L 48.726562 60.164062 L 48.726562 21.335938 L 59.957031 21.335938 L 75.050781 40.542969 Z M 75.050781 60.164062 "/>
</g>
</svg>
