<svg xmlns="http://www.w3.org/2000/svg" width="80pt" height="80pt" viewBox="0 0 80 80"><g fill="#810000"><path d="M72.684 13.54C63.954 4.808 52.348 0 40 0 27.652 0 16.047 4.809 7.316 13.54a2.661 2.661 0 00-.5 3.07l30.801 61.913A2.656 2.656 0 0040 80c1.012 0 1.934-.57 2.383-1.477L73.187 16.61a2.668 2.668 0 00-.503-3.07zM40 5.323c10.29 0 19.996 3.774 27.543 10.668l-2.059 4.14c-7.035-6.245-15.996-9.66-25.484-9.66-9.488 0-18.45 3.415-25.484 9.66l-2.059-4.14C20.004 9.098 29.711 5.324 40 5.324zM24.434 39.676a4.62 4.62 0 00-.223-.055l-3.813-7.668a6.069 6.069 0 012.954-3.539 6.063 6.063 0 014.664-.45 6.062 6.062 0 013.617 2.981c.77 1.446.93 3.102.449 4.668a6.084 6.084 0 01-2.98 3.617 6.09 6.09 0 01-4.668.446zM40 71.359L27.012 45.25c1.586-.11 3.144-.55 4.59-1.32a11.37 11.37 0 005.574-6.762 11.364 11.364 0 00-.84-8.723 11.354 11.354 0 00-6.762-5.574 11.375 11.375 0 00-8.726.84 11.435 11.435 0 00-3.262 2.59l-.598-1.2c6.207-6.003 14.356-9.304 23.012-9.304s16.805 3.3 23.012 9.305l-8.617 17.32c-1.81-3.035-5.122-5.074-8.903-5.074-5.707 0-10.351 4.644-10.351 10.355 0 5.707 4.644 10.352 10.351 10.352.39 0 .778-.024 1.16-.067zm5.492-18.632a5.033 5.033 0 01-5.027-5.024 5.034 5.034 0 015.027-5.027 5.031 5.031 0 015.028 5.027 5.03 5.03 0 01-5.028 5.024zm0 0"/><path d="M51.3 30.91c.52.52 1.2.781 1.884.781a2.664 2.664 0 001.883-4.547l-4.395-4.394a2.664 2.664 0 00-3.766 0 2.657 2.657 0 000 3.766zm0 0"/></g></svg>