<svg xmlns="http://www.w3.org/2000/svg" width="80pt" height="80pt" viewBox="0 0 80 80"><path d="M80 38.828L62.363 16.387H47.668L41.02 5.062H7.707L0 18.188v46.926h8.46c.298 5.465 4.84 9.825 10.38 9.825 5.543 0 10.082-4.36 10.383-9.825h21.554c.301 5.465 4.84 9.825 10.383 9.825 5.54 0 10.082-4.36 10.38-9.825H80zm-52.371 5.414h-6.531v-9.52h6.53zm-11.48-14.465v14.465h-11.2V21.336h38.828v22.906H32.574V29.777zm-5.61-19.765h27.648l3.743 6.375H6.797zm8.3 59.976a5.456 5.456 0 01-5.448-5.449 5.456 5.456 0 015.449-5.45 5.456 5.456 0 015.45 5.45 5.456 5.456 0 01-5.45 5.45zm0-15.847c-4.171 0-7.773 2.468-9.429 6.023H4.95V49.191h38.827v10.973H28.27c-1.657-3.555-5.258-6.023-9.43-6.023zM61.16 69.988a5.456 5.456 0 01-5.45-5.449 5.456 5.456 0 015.45-5.45 5.456 5.456 0 015.45 5.45 5.456 5.456 0 01-5.45 5.45zm13.89-9.824h-4.46c-1.656-3.555-5.258-6.023-9.43-6.023s-7.773 2.468-9.43 6.023h-3.003V21.336h11.23l15.094 19.207zm0 0" fill="#810000"/></svg>