<?xml version="1.0" encoding="UTF-8"?>
<svg xmlns="http://www.w3.org/2000/svg" xmlns:xlink="http://www.w3.org/1999/xlink" width="80pt" height="80pt" viewBox="0 0 80 80" version="1.1">
<g id="surface1">
<path style=" stroke:none;fill-rule:nonzero;fill:rgb(50.588235%,0%,0%);fill-opacity:1;" d="M 72.683594 13.539062 C 63.953125 4.808594 52.347656 0 40 0 C 27.652344 0 16.046875 4.808594 7.316406 13.539062 C 6.507812 14.347656 6.304688 15.582031 6.816406 16.609375 L 37.617188 78.523438 C 38.066406 79.429688 38.988281 80 40 80 C 41.011719 80 41.933594 79.429688 42.382812 78.523438 L 73.1875 16.609375 C 73.695312 15.582031 73.492188 14.347656 72.683594 13.539062 Z M 40 5.324219 C 50.289062 5.324219 59.996094 9.097656 67.542969 15.992188 L 65.484375 20.132812 C 58.449219 13.886719 49.488281 10.472656 40 10.472656 C 30.511719 10.472656 21.550781 13.886719 14.515625 20.132812 L 12.457031 15.992188 C 20.003906 9.097656 29.710938 5.324219 40 5.324219 Z M 24.433594 39.675781 C 24.359375 39.65625 24.285156 39.636719 24.210938 39.621094 L 20.398438 31.953125 C 20.886719 30.425781 21.929688 29.167969 23.351562 28.414062 C 24.792969 27.644531 26.453125 27.484375 28.015625 27.964844 C 29.582031 28.441406 30.867188 29.5 31.632812 30.945312 C 32.402344 32.390625 32.5625 34.046875 32.082031 35.613281 C 31.605469 37.175781 30.546875 38.460938 29.101562 39.230469 C 27.65625 39.996094 26 40.15625 24.433594 39.675781 Z M 40 71.359375 L 27.011719 45.25 C 28.597656 45.140625 30.15625 44.699219 31.601562 43.929688 C 34.300781 42.496094 36.28125 40.09375 37.175781 37.167969 C 38.070312 34.242188 37.773438 31.144531 36.335938 28.445312 C 34.898438 25.742188 32.5 23.761719 29.574219 22.871094 C 26.648438 21.976562 23.550781 22.273438 20.847656 23.710938 C 19.59375 24.378906 18.492188 25.257812 17.585938 26.300781 L 16.988281 25.101562 C 23.195312 19.097656 31.34375 15.796875 40 15.796875 C 48.65625 15.796875 56.804688 19.097656 63.011719 25.101562 L 54.394531 42.421875 C 52.585938 39.386719 49.273438 37.347656 45.492188 37.347656 C 39.785156 37.347656 35.140625 41.992188 35.140625 47.703125 C 35.140625 53.410156 39.785156 58.054688 45.492188 58.054688 C 45.882812 58.054688 46.269531 58.03125 46.652344 57.988281 Z M 45.492188 52.726562 C 42.722656 52.726562 40.464844 50.472656 40.464844 47.703125 C 40.464844 44.929688 42.722656 42.675781 45.492188 42.675781 C 48.265625 42.675781 50.519531 44.929688 50.519531 47.703125 C 50.519531 50.472656 48.265625 52.726562 45.492188 52.726562 Z M 45.492188 52.726562 "/>
<path style=" stroke:none;fill-rule:nonzero;fill:rgb(50.588235%,0%,0%);fill-opacity:1;" d="M 51.300781 30.910156 C 51.820312 31.429688 52.5 31.691406 53.183594 31.691406 C 53.863281 31.691406 54.542969 31.429688 55.066406 30.910156 C 56.105469 29.871094 56.105469 28.183594 55.066406 27.144531 L 50.671875 22.75 C 49.632812 21.710938 47.945312 21.710938 46.90625 22.75 C 45.863281 23.789062 45.863281 25.476562 46.90625 26.515625 Z M 51.300781 30.910156 "/>
</g>
</svg>
