<?xml version="1.0" encoding="UTF-8"?>
<svg xmlns="http://www.w3.org/2000/svg" xmlns:xlink="http://www.w3.org/1999/xlink" width="80pt" height="80pt" viewBox="0 0 80 80" version="1.1">
<g id="surface1">
<path style=" stroke:none;fill-rule:nonzero;fill:rgb(50.588235%,0%,0%);fill-opacity:1;" d="M 79.675781 76.21875 L 49.945312 23.132812 C 49.816406 22.902344 49.652344 22.695312 49.460938 22.515625 C 49.179688 22.253906 43.425781 17.09375 33.789062 23.289062 C 30.890625 18.148438 27.542969 10.5 27.5 2.527344 C 27.492188 1.128906 26.355469 0 24.960938 0 C 24.957031 0 24.953125 0 24.945312 0 C 23.542969 0.0078125 22.414062 1.152344 22.421875 2.554688 C 22.46875 11.605469 26.101562 20.03125 29.292969 25.699219 L 9.316406 5.726562 C 8.328125 4.734375 6.71875 4.734375 5.726562 5.726562 C 4.734375 6.71875 4.734375 8.328125 5.726562 9.316406 L 25.699219 29.292969 C 20.03125 26.101562 11.605469 22.46875 2.554688 22.421875 C 2.550781 22.421875 2.542969 22.421875 2.539062 22.421875 C 1.144531 22.421875 0.0078125 23.550781 0 24.945312 C -0.0078125 26.351562 1.125 27.492188 2.527344 27.5 C 10.488281 27.542969 18.125 30.878906 23.269531 33.777344 C 21.183594 37.003906 20.171875 40.136719 20.25 43.148438 C 20.351562 47.035156 22.296875 49.226562 22.515625 49.460938 C 22.695312 49.652344 22.902344 49.816406 23.132812 49.945312 L 76.21875 79.675781 C 76.609375 79.894531 77.035156 80 77.460938 80 C 78.117188 80 78.765625 79.746094 79.253906 79.257812 C 80.058594 78.453125 80.230469 77.210938 79.675781 76.21875 Z M 79.675781 76.21875 "/>
</g>
</svg>
