<?xml version="1.0" encoding="UTF-8"?>
<svg xmlns="http://www.w3.org/2000/svg" xmlns:xlink="http://www.w3.org/1999/xlink" width="20pt" height="20pt" viewBox="0 0 20 20" version="1.1">
<g id="surface1">
<path style=" stroke:none;fill-rule:nonzero;fill:rgb(0%,0%,0%);fill-opacity:1;" d="M 16.695312 12.746094 C 16.449219 12.503906 16.050781 12.503906 15.804688 12.746094 L 10.632812 17.867188 L 10.632812 0.625 C 10.632812 0.28125 10.347656 0 10 0 C 9.652344 0 9.367188 0.28125 9.367188 0.625 L 9.367188 17.867188 L 4.195312 12.746094 C 3.949219 12.503906 3.550781 12.503906 3.304688 12.746094 C 3.058594 12.992188 3.058594 13.386719 3.304688 13.632812 L 9.554688 19.820312 C 9.796875 20.058594 10.203125 20.058594 10.445312 19.820312 L 16.695312 13.632812 C 16.941406 13.386719 16.941406 12.992188 16.695312 12.746094 C 16.449219 12.503906 16.941406 12.992188 16.695312 12.746094 Z M 16.695312 12.746094 "/>
</g>
</svg>
