<?xml version="1.0" encoding="UTF-8"?>
<svg xmlns="http://www.w3.org/2000/svg" xmlns:xlink="http://www.w3.org/1999/xlink" width="10pt" height="10pt" viewBox="0 0 10 10" version="1.1">
<g id="surface1">
<path style=" stroke:none;fill-rule:nonzero;fill:rgb(0%,0%,0%);fill-opacity:1;" d="M 0.332031 9.203125 C 0.335938 9.203125 0.339844 9.203125 0.34375 9.203125 C 0.5 9.195312 0.601562 9.074219 0.613281 8.917969 C 0.625 8.800781 0.933594 5.996094 5.3125 6 L 5.324219 7.792969 C 5.324219 7.914062 5.390625 8.023438 5.5 8.074219 C 5.609375 8.125 5.742188 8.109375 5.832031 8.035156 L 9.886719 4.675781 C 9.957031 4.617188 10 4.527344 10 4.433594 C 10 4.339844 9.957031 4.253906 9.886719 4.191406 L 5.832031 0.867188 C 5.738281 0.792969 5.609375 0.777344 5.5 0.828125 C 5.390625 0.878906 5.324219 0.988281 5.324219 1.109375 L 5.3125 2.863281 C 3.496094 2.921875 2.089844 3.503906 1.179688 4.574219 C -0.304688 6.308594 0.0273438 8.832031 0.0429688 8.9375 C 0.0664062 9.089844 0.175781 9.203125 0.332031 9.203125 Z M 5.636719 5.371094 C 5.636719 5.371094 5.632812 5.371094 5.632812 5.371094 C 2.507812 5.371094 1.3125 6.425781 0.628906 7.359375 C 0.730469 6.613281 1.023438 5.710938 1.65625 4.976562 C 2.5 4 3.855469 3.484375 5.636719 3.484375 C 5.808594 3.484375 5.949219 3.34375 5.949219 3.171875 L 5.949219 1.765625 L 9.195312 4.4375 L 5.949219 7.132812 L 5.949219 5.683594 C 5.949219 5.597656 5.914062 5.519531 5.855469 5.460938 C 5.796875 5.402344 5.71875 5.371094 5.636719 5.371094 Z M 5.636719 5.371094 "/>
</g>
</svg>
