<?xml version="1.0" encoding="UTF-8"?>
<svg xmlns="http://www.w3.org/2000/svg" xmlns:xlink="http://www.w3.org/1999/xlink" width="30pt" height="30pt" viewBox="0 0 40 40" version="1.1">
<g id="surface1">
<path style=" stroke:none;fill-rule:nonzero;fill:rgb(100%,100%,100%);fill-opacity:1;" d="M 32.5 0 L 7.5 0 C 3.355469 0 0 3.355469 0 7.5 L 0 32.5 C 0 36.644531 3.355469 40 7.5 40 L 32.5 40 C 36.644531 40 40 36.644531 40 32.5 L 40 7.5 C 40 3.355469 36.644531 0 32.5 0 Z M 31.484375 21.542969 L 27.738281 21.542969 L 27.738281 35.394531 L 21.488281 35.394531 L 21.488281 21.542969 L 19.066406 21.542969 L 19.066406 16.875 L 21.488281 16.875 L 21.488281 13.902344 C 21.492188 10.007812 23.109375 7.691406 27.703125 7.691406 L 32.355469 7.691406 L 32.355469 12.339844 L 29.652344 12.339844 C 27.863281 12.339844 27.746094 13.007812 27.746094 14.253906 L 27.738281 16.875 L 31.992188 16.875 Z M 31.484375 21.542969 "/>
</g>
</svg>
