<?xml version="1.0" encoding="UTF-8"?>
<svg xmlns="http://www.w3.org/2000/svg" xmlns:xlink="http://www.w3.org/1999/xlink" width="30pt" height="30pt" viewBox="0 0 40 40" version="1.1">
<g id="surface1">
<path style=" stroke:none;fill-rule:nonzero;fill:rgb(100%,100%,100%);fill-opacity:1;" d="M 28.960938 0 L 11.039062 0 C 4.953125 0 0 4.953125 0 11.039062 L 0 28.960938 C 0 35.046875 4.953125 40 11.039062 40 L 28.960938 40 C 35.046875 40 40 35.046875 40 28.960938 L 40 11.039062 C 40 4.953125 35.046875 0 28.960938 0 Z M 36.449219 28.960938 C 36.449219 33.089844 33.089844 36.449219 28.960938 36.449219 L 11.039062 36.449219 C 6.910156 36.449219 3.550781 33.089844 3.550781 28.960938 L 3.550781 11.039062 C 3.550781 6.910156 6.910156 3.550781 11.039062 3.550781 L 28.960938 3.550781 C 33.089844 3.550781 36.449219 6.910156 36.449219 11.039062 Z M 36.449219 28.960938 "/>
<path style=" stroke:none;fill-rule:nonzero;fill:rgb(100%,100%,100%);fill-opacity:1;" d="M 20 9.695312 C 14.316406 9.695312 9.691406 14.316406 9.691406 20 C 9.691406 25.683594 14.316406 30.308594 20 30.308594 C 25.683594 30.308594 30.308594 25.683594 30.308594 20 C 30.308594 14.316406 25.683594 9.695312 20 9.695312 Z M 20 26.757812 C 16.273438 26.757812 13.242188 23.726562 13.242188 20 C 13.242188 16.273438 16.273438 13.242188 20 13.242188 C 23.726562 13.242188 26.757812 16.273438 26.757812 20 C 26.757812 23.726562 23.726562 26.757812 20 26.757812 Z M 20 26.757812 "/>
<path style=" stroke:none;fill-rule:nonzero;fill:rgb(100%,100%,100%);fill-opacity:1;" d="M 30.738281 6.683594 C 30.054688 6.683594 29.382812 6.960938 28.902344 7.445312 C 28.414062 7.929688 28.136719 8.601562 28.136719 9.285156 C 28.136719 9.972656 28.414062 10.640625 28.902344 11.128906 C 29.382812 11.609375 30.054688 11.890625 30.738281 11.890625 C 31.425781 11.890625 32.09375 11.609375 32.578125 11.128906 C 33.066406 10.640625 33.339844 9.96875 33.339844 9.285156 C 33.339844 8.601562 33.066406 7.929688 32.578125 7.445312 C 32.097656 6.960938 31.425781 6.683594 30.738281 6.683594 Z M 30.738281 6.683594 "/>
</g>
</svg>
