<svg xmlns="http://www.w3.org/2000/svg" width="65pt" height="65pt" viewBox="0 0 65 65"><g fill="#fff"><path d="M6.23 24.469l6.88 2.136 2.136 6.88a2.626 2.626 0 002.504 1.843c.844 0 1.645-.406 2.14-1.11l4.16-5.878 7.204.09a2.619 2.619 0 002.133-4.188l-4.309-5.773 2.313-6.82a2.617 2.617 0 00-.63-2.696 2.617 2.617 0 00-2.695-.629l-6.82 2.313-5.773-4.309a2.619 2.619 0 00-4.188 2.133l.09 7.203-5.879 4.16a2.623 2.623 0 00-1.078 2.551c.156.984.86 1.797 1.812 2.094zm9.297-5.32a2.628 2.628 0 001.11-2.172l-.043-3.274 2.62 1.957c.692.516 1.595.66 2.411.383l3.098-1.05-1.051 3.097a2.623 2.623 0 00.383 2.41l1.957 2.621-3.274-.039h-.031c-.852 0-1.648.41-2.14 1.105l-1.891 2.672-.969-3.125a2.618 2.618 0 00-1.727-1.722l-3.125-.973zm0 0"/><path d="M45.035.23a2.62 2.62 0 00-2.93.54 2.617 2.617 0 00-.535 2.93 28.364 28.364 0 012.516 11.753c0 15.79-12.844 28.633-28.633 28.633-4.098 0-8.05-.844-11.754-2.516a2.617 2.617 0 00-2.93.535 2.62 2.62 0 00-.539 2.93C5.7 57.165 17.828 65 31.125 65 49.805 65 65 49.805 65 31.125 65 17.828 57.164 5.699 45.035.23zm-13.91 59.528c-8.98 0-17.328-4.227-22.68-11.153 2.285.48 4.63.723 7.008.723 18.68 0 33.875-15.195 33.875-33.875 0-2.379-.242-4.723-.723-7.008 6.926 5.352 11.153 13.7 11.153 22.68 0 15.79-12.844 28.633-28.633 28.633zm0 0"/></g></svg>