<?xml version="1.0" encoding="UTF-8"?>
<svg xmlns="http://www.w3.org/2000/svg" xmlns:xlink="http://www.w3.org/1999/xlink" width="15pt" height="15pt" viewBox="0 0 15 15" version="1.1">
<g id="surface1">
<path style=" stroke:none;fill-rule:nonzero;fill:rgb(0%,0%,0%);fill-opacity:1;" d="M 12.523438 9.558594 C 12.335938 9.378906 12.039062 9.375 11.851562 9.558594 L 7.972656 13.402344 L 7.972656 0.46875 C 7.972656 0.210938 7.761719 0 7.5 0 C 7.238281 0 7.027344 0.210938 7.027344 0.46875 L 7.027344 13.402344 L 3.148438 9.5625 C 2.960938 9.378906 2.664062 9.378906 2.476562 9.5625 C 2.292969 9.742188 2.292969 10.039062 2.476562 10.222656 L 7.164062 14.863281 C 7.347656 15.046875 7.652344 15.046875 7.835938 14.863281 L 12.523438 10.222656 C 12.707031 10.039062 12.707031 9.742188 12.523438 9.558594 C 12.335938 9.378906 12.707031 9.742188 12.523438 9.558594 Z M 12.523438 9.558594 "/>
</g>
</svg>
