<?xml version="1.0" encoding="UTF-8"?>
<svg xmlns="http://www.w3.org/2000/svg" xmlns:xlink="http://www.w3.org/1999/xlink" width="35pt" height="35pt" viewBox="0 0 35 35" version="1.1">
<g id="surface1">
<path style=" stroke:none;fill-rule:nonzero;fill:rgb(0%,0%,0%);fill-opacity:1;" d="M 31.054688 0 L 6.5 0 C 4.71875 0 3.273438 1.449219 3.273438 3.226562 L 3.273438 9.121094 L 2.355469 9.121094 C 1.296875 9.121094 0.4375 9.984375 0.4375 11.042969 C 0.4375 12.105469 1.296875 12.964844 2.355469 12.964844 L 3.273438 12.964844 L 3.273438 18.507812 L 2.355469 18.507812 C 1.296875 18.507812 0.4375 19.367188 0.4375 20.429688 C 0.4375 21.488281 1.296875 22.351562 2.355469 22.351562 L 3.273438 22.351562 L 3.273438 27.785156 C 3.273438 29.566406 4.71875 31.015625 6.5 31.015625 L 8.179688 31.015625 L 8.179688 31.921875 C 8.179688 33.46875 9.433594 34.722656 10.976562 34.722656 C 12.523438 34.722656 13.777344 33.46875 13.777344 31.921875 L 13.777344 31.015625 L 23.777344 31.015625 L 23.777344 31.921875 C 23.777344 33.46875 25.03125 34.722656 26.574219 34.722656 C 28.121094 34.722656 29.375 33.46875 29.375 31.921875 L 29.375 31.015625 L 31.054688 31.015625 C 32.835938 31.015625 34.28125 29.566406 34.28125 27.785156 L 34.28125 3.226562 C 34.28125 1.449219 32.835938 0 31.054688 0 Z M 5.320312 12.964844 L 6.945312 12.964844 L 6.945312 18.507812 L 5.320312 18.507812 Z M 8.992188 5.792969 L 28.40625 5.792969 L 28.40625 25.378906 L 8.992188 25.378906 Z M 32.234375 27.785156 C 32.234375 28.433594 31.707031 28.964844 31.054688 28.964844 L 6.5 28.964844 C 5.847656 28.964844 5.320312 28.4375 5.320312 27.785156 L 5.320312 22.351562 L 6.945312 22.351562 L 6.945312 27.429688 L 30.453125 27.429688 L 30.453125 3.746094 L 6.945312 3.746094 L 6.945312 9.121094 L 5.320312 9.121094 L 5.320312 3.226562 C 5.320312 2.578125 5.847656 2.046875 6.5 2.046875 L 31.054688 2.046875 C 31.707031 2.046875 32.234375 2.578125 32.234375 3.226562 Z M 32.234375 27.785156 "/>
<path style=" stroke:none;fill-rule:nonzero;fill:rgb(0%,0%,0%);fill-opacity:1;" d="M 26.351562 15.585938 C 26.351562 17.507812 24.792969 19.066406 22.875 19.066406 C 20.953125 19.066406 19.394531 17.507812 19.394531 15.585938 C 19.394531 13.667969 20.953125 12.109375 22.875 12.109375 C 24.792969 12.109375 26.351562 13.667969 26.351562 15.585938 Z M 26.351562 15.585938 "/>
</g>
</svg>
