<?xml version="1.0" encoding="UTF-8"?>
<svg xmlns="http://www.w3.org/2000/svg" xmlns:xlink="http://www.w3.org/1999/xlink" width="35pt" height="35pt" viewBox="0 0 35 35" version="1.1">
<g id="surface1">
<path style=" stroke:none;fill-rule:nonzero;fill:rgb(62.745098%,50.588235%,36.078431%);fill-opacity:1;" d="M 14.582031 22.726562 L 14.582031 20.671875 L 0 17.589844 L 0 8.140625 L 0 32.203125 L 17.5 32.203125 L 17.5 22.726562 Z M 14.582031 22.726562 "/>
<path style=" stroke:none;fill-rule:nonzero;fill:rgb(62.745098%,50.588235%,36.078431%);fill-opacity:1;" d="M 15.070312 5.710938 L 19.929688 5.710938 C 21.46875 5.710938 22.769531 6.738281 23.191406 8.140625 L 26.171875 8.140625 C 25.703125 5.117188 23.085938 2.796875 19.929688 2.796875 L 15.070312 2.796875 C 11.914062 2.796875 9.296875 5.117188 8.828125 8.140625 L 11.808594 8.140625 C 12.230469 6.738281 13.53125 5.710938 15.070312 5.710938 Z M 15.070312 5.710938 "/>
<path style=" stroke:none;fill-rule:nonzero;fill:rgb(47.058824%,38.039216%,27.058824%);fill-opacity:1;" d="M 35 8.140625 L 35 17.589844 L 20.417969 20.671875 L 20.417969 22.726562 L 17.5 22.726562 L 17.5 32.203125 L 35 32.203125 Z M 35 8.140625 "/>
<path style=" stroke:none;fill-rule:nonzero;fill:rgb(31.372549%,25.490196%,18.039216%);fill-opacity:1;" d="M 14.582031 20.671875 L 14.582031 18.835938 L 20.417969 18.835938 L 20.417969 20.671875 L 35 17.589844 L 35 8.140625 L 0 8.140625 L 0 17.589844 Z M 14.582031 20.671875 "/>
<path style=" stroke:none;fill-rule:nonzero;fill:rgb(100%,94.117647%,70.588235%);fill-opacity:1;" d="M 17.5 18.835938 L 14.582031 18.835938 L 14.582031 22.726562 L 17.5 22.726562 Z M 17.5 18.835938 "/>
<path style=" stroke:none;fill-rule:nonzero;fill:rgb(100%,85.490196%,26.666667%);fill-opacity:1;" d="M 17.5 18.835938 L 17.5 22.726562 L 20.417969 22.726562 L 20.417969 18.835938 Z M 17.5 18.835938 "/>
</g>
</svg>
