<?xml version="1.0" encoding="UTF-8"?>
<svg xmlns="http://www.w3.org/2000/svg" xmlns:xlink="http://www.w3.org/1999/xlink" width="35pt" height="35pt" viewBox="0 0 35 35" version="1.1">
<g id="surface1">
<path style=" stroke:none;fill-rule:nonzero;fill:rgb(50.588235%,50.196078%,52.156863%);fill-opacity:1;" d="M 2.761719 17.5 C 2.761719 9.359375 9.359375 2.761719 17.5 2.761719 L 17.5 0 C 7.835938 0 0 7.835938 0 17.5 C 0 27.164062 7.835938 35 17.5 35 L 17.5 32.238281 C 9.359375 32.238281 2.761719 25.640625 2.761719 17.5 Z M 2.761719 17.5 "/>
<path style=" stroke:none;fill-rule:nonzero;fill:rgb(33.72549%,33.72549%,34.901961%);fill-opacity:1;" d="M 17.5 0 L 17.5 2.761719 C 25.640625 2.761719 32.238281 9.359375 32.238281 17.5 C 32.238281 25.640625 25.640625 32.238281 17.5 32.238281 L 17.5 35 C 27.164062 35 35 27.164062 35 17.5 C 35 7.835938 27.164062 0 17.5 0 Z M 17.5 0 "/>
<path style=" stroke:none;fill-rule:nonzero;fill:rgb(100%,100%,100%);fill-opacity:1;" d="M 2.761719 17.5 C 2.761719 25.640625 9.359375 32.238281 17.5 32.238281 C 25.640625 32.238281 32.238281 25.640625 32.238281 17.5 C 32.238281 9.359375 25.640625 2.761719 17.5 2.761719 C 9.359375 2.761719 2.761719 9.359375 2.761719 17.5 Z M 16.117188 5.527344 L 18.882812 5.527344 L 18.882812 8.289062 L 16.117188 8.289062 Z M 16.117188 16.117188 L 16.117188 11.050781 L 18.882812 11.050781 L 18.882812 16.117188 L 29.472656 16.117188 L 29.472656 18.882812 L 16.117188 18.882812 Z M 16.117188 26.710938 L 18.882812 26.710938 L 18.882812 29.472656 L 16.117188 29.472656 Z M 8.289062 18.882812 L 5.527344 18.882812 L 5.527344 16.117188 L 8.289062 16.117188 Z M 8.289062 18.882812 "/>
<path style=" stroke:none;fill-rule:nonzero;fill:rgb(67.45098%,67.058824%,69.411765%);fill-opacity:1;" d="M 16.117188 5.527344 L 18.882812 5.527344 L 18.882812 8.289062 L 16.117188 8.289062 Z M 16.117188 5.527344 "/>
<path style=" stroke:none;fill-rule:nonzero;fill:rgb(67.45098%,67.058824%,69.411765%);fill-opacity:1;" d="M 16.117188 26.710938 L 18.882812 26.710938 L 18.882812 29.472656 L 16.117188 29.472656 Z M 16.117188 26.710938 "/>
<path style=" stroke:none;fill-rule:nonzero;fill:rgb(16.862745%,16.862745%,17.254902%);fill-opacity:1;" d="M 18.882812 16.117188 L 26.710938 16.117188 L 26.710938 18.882812 L 18.882812 18.882812 Z M 18.882812 16.117188 "/>
<path style=" stroke:none;fill-rule:nonzero;fill:rgb(67.45098%,67.058824%,69.411765%);fill-opacity:1;" d="M 26.710938 16.117188 L 29.472656 16.117188 L 29.472656 18.882812 L 26.710938 18.882812 Z M 26.710938 16.117188 "/>
<path style=" stroke:none;fill-rule:nonzero;fill:rgb(67.45098%,67.058824%,69.411765%);fill-opacity:1;" d="M 5.527344 16.117188 L 8.289062 16.117188 L 8.289062 18.882812 L 5.527344 18.882812 Z M 5.527344 16.117188 "/>
<path style=" stroke:none;fill-rule:nonzero;fill:rgb(84.705882%,0%,15.294118%);fill-opacity:1;" d="M 18.882812 18.882812 L 18.882812 11.050781 L 16.117188 11.050781 L 16.117188 18.882812 Z M 18.882812 18.882812 "/>
</g>
</svg>
