<?xml version="1.0" encoding="UTF-8"?>
<svg xmlns="http://www.w3.org/2000/svg" xmlns:xlink="http://www.w3.org/1999/xlink" width="35pt" height="35pt" viewBox="0 0 35 35" version="1.1">
<g id="surface1">
<path style=" stroke:none;fill-rule:nonzero;fill:rgb(0%,0%,0%);fill-opacity:1;" d="M 28.410156 12.671875 L 27.132812 12.671875 L 27.132812 9.632812 C 27.132812 7.058594 26.128906 4.640625 24.308594 2.820312 C 22.492188 1 20.070312 0 17.5 0 C 12.1875 0 7.867188 4.320312 7.867188 9.632812 L 7.867188 12.671875 L 6.589844 12.671875 C 5.980469 12.671875 5.484375 13.167969 5.484375 13.78125 L 5.484375 32.519531 C 5.484375 33.023438 5.828125 33.464844 6.316406 33.589844 C 9.972656 34.53125 13.738281 35 17.5 35 C 21.261719 35 25.027344 34.53125 28.683594 33.589844 C 29.171875 33.464844 29.515625 33.023438 29.515625 32.519531 L 29.515625 13.78125 C 29.515625 13.167969 29.019531 12.671875 28.410156 12.671875 Z M 10.082031 9.632812 C 10.082031 5.542969 13.410156 2.214844 17.5 2.214844 C 19.480469 2.214844 21.34375 2.984375 22.746094 4.386719 C 24.144531 5.789062 24.917969 7.648438 24.917969 9.632812 L 24.917969 12.671875 L 23.046875 12.671875 L 23.046875 9.632812 C 23.046875 8.148438 22.472656 6.757812 21.421875 5.707031 C 20.375 4.660156 18.980469 4.082031 17.5 4.082031 C 14.441406 4.082031 11.953125 6.570312 11.953125 9.632812 L 11.953125 12.671875 L 10.082031 12.671875 Z M 20.835938 12.671875 L 14.164062 12.671875 L 14.164062 9.632812 C 14.164062 7.792969 15.660156 6.296875 17.5 6.296875 C 18.390625 6.296875 19.226562 6.644531 19.859375 7.273438 C 20.488281 7.902344 20.835938 8.742188 20.835938 9.632812 Z M 27.300781 31.652344 C 20.871094 33.164062 14.128906 33.164062 7.699219 31.652344 L 7.699219 14.886719 L 27.300781 14.886719 Z M 27.300781 31.652344 "/>
<path style=" stroke:none;fill-rule:nonzero;fill:rgb(0%,0%,0%);fill-opacity:1;" d="M 15.75 23.933594 L 14.566406 27.140625 C 14.480469 27.367188 14.515625 27.621094 14.652344 27.816406 C 14.789062 28.015625 15.015625 28.132812 15.257812 28.132812 L 19.742188 28.132812 C 19.984375 28.132812 20.210938 28.015625 20.347656 27.816406 C 20.484375 27.621094 20.519531 27.367188 20.433594 27.140625 L 19.25 23.933594 C 20.109375 23.355469 20.652344 22.378906 20.652344 21.316406 C 20.652344 19.578125 19.238281 18.164062 17.5 18.164062 C 15.761719 18.164062 14.347656 19.578125 14.347656 21.316406 C 14.347656 22.378906 14.890625 23.355469 15.75 23.933594 Z M 17.5 19.640625 C 18.421875 19.640625 19.175781 20.394531 19.175781 21.316406 C 19.175781 22.015625 18.734375 22.644531 18.078125 22.886719 C 17.695312 23.027344 17.5 23.453125 17.640625 23.835938 L 18.683594 26.65625 L 16.316406 26.65625 L 17.359375 23.835938 C 17.5 23.453125 17.304688 23.027344 16.921875 22.886719 C 16.265625 22.644531 15.824219 22.015625 15.824219 21.316406 C 15.824219 20.394531 16.578125 19.640625 17.5 19.640625 Z M 17.5 19.640625 "/>
</g>
</svg>
