<?xml version="1.0" encoding="UTF-8"?>
<svg xmlns="http://www.w3.org/2000/svg" xmlns:xlink="http://www.w3.org/1999/xlink" width="35pt" height="35pt" viewBox="0 0 35 35" version="1.1">
<g id="surface1">
<path style=" stroke:none;fill-rule:nonzero;fill:rgb(100%,100%,100%);fill-opacity:1;" d="M 12.550781 11.375 L 4.800781 11.375 C 4.699219 12.527344 3.78125 13.449219 2.625 13.550781 L 2.625 21.449219 C 3.777344 21.550781 4.699219 22.46875 4.800781 23.625 L 12.550781 23.625 C 10.765625 22.179688 9.625 19.972656 9.625 17.5 C 9.625 15.027344 10.765625 12.820312 12.550781 11.375 Z M 12.550781 11.375 "/>
<path style=" stroke:none;fill-rule:nonzero;fill:rgb(100%,100%,100%);fill-opacity:1;" d="M 22.449219 23.625 L 30.199219 23.625 C 30.300781 22.472656 31.21875 21.550781 32.375 21.449219 L 32.375 13.550781 C 31.222656 13.449219 30.300781 12.53125 30.199219 11.375 L 22.449219 11.375 C 24.234375 12.820312 25.375 15.027344 25.375 17.5 C 25.375 19.972656 24.234375 22.179688 22.449219 23.625 Z M 22.449219 23.625 "/>
<path style=" stroke:none;fill-rule:nonzero;fill:rgb(42.745098%,64.705882%,26.666667%);fill-opacity:1;" d="M 17.5 8.75 L 17.5 10.894531 L 18.097656 10.894531 L 18.097656 12.316406 C 18.707031 12.371094 19.28125 12.507812 19.816406 12.726562 C 20.351562 12.941406 20.816406 13.160156 21.210938 13.386719 L 20.199219 15.304688 C 20.167969 15.265625 20.085938 15.203125 19.949219 15.117188 C 19.816406 15.035156 19.640625 14.945312 19.429688 14.84375 C 19.21875 14.746094 18.984375 14.652344 18.726562 14.5625 C 18.46875 14.472656 18.207031 14.410156 17.945312 14.371094 L 17.945312 16.289062 L 18.394531 16.402344 C 18.875 16.53125 19.304688 16.675781 19.691406 16.832031 C 20.074219 16.984375 20.402344 17.179688 20.667969 17.410156 C 20.9375 17.640625 21.144531 17.917969 21.289062 18.246094 C 21.433594 18.574219 21.507812 18.96875 21.507812 19.429688 C 21.507812 19.964844 21.414062 20.421875 21.226562 20.796875 C 21.039062 21.171875 20.785156 21.480469 20.472656 21.71875 C 20.15625 21.957031 19.796875 22.140625 19.386719 22.261719 C 18.980469 22.382812 18.550781 22.453125 18.097656 22.472656 L 18.097656 24.105469 L 17.5 24.105469 L 17.5 26.25 L 35 26.25 L 35 8.75 Z M 22.449219 11.375 L 30.199219 11.375 C 30.300781 12.527344 31.21875 13.449219 32.375 13.550781 L 32.375 21.449219 C 31.222656 21.550781 30.300781 22.46875 30.199219 23.625 L 22.449219 23.625 C 24.234375 22.179688 25.375 19.972656 25.375 17.5 C 25.375 15.027344 24.234375 12.820312 22.449219 11.375 Z M 22.449219 11.375 "/>
<path style=" stroke:none;fill-rule:nonzero;fill:rgb(42.745098%,64.705882%,26.666667%);fill-opacity:1;" d="M 19.027344 19.65625 C 19.027344 19.410156 18.929688 19.222656 18.734375 19.085938 C 18.535156 18.949219 18.273438 18.824219 17.945312 18.710938 L 17.945312 20.402344 C 18.667969 20.375 19.027344 20.125 19.027344 19.65625 Z M 19.027344 19.65625 "/>
<path style=" stroke:none;fill-rule:nonzero;fill:rgb(56.862745%,86.27451%,35.294118%);fill-opacity:1;" d="M 16.296875 15.175781 C 16.296875 15.410156 16.378906 15.597656 16.542969 15.730469 C 16.707031 15.867188 16.953125 15.988281 17.28125 16.089844 L 17.28125 14.359375 C 16.625 14.414062 16.296875 14.6875 16.296875 15.175781 Z M 16.296875 15.175781 "/>
<path style=" stroke:none;fill-rule:nonzero;fill:rgb(56.862745%,86.27451%,35.294118%);fill-opacity:1;" d="M 17.5 24.105469 L 17.125 24.105469 L 17.125 22.457031 C 16.480469 22.402344 15.835938 22.269531 15.203125 22.0625 C 14.570312 21.859375 14 21.585938 13.492188 21.246094 L 14.507812 19.230469 C 14.542969 19.28125 14.644531 19.355469 14.808594 19.464844 C 14.972656 19.574219 15.183594 19.683594 15.4375 19.800781 C 15.691406 19.921875 15.976562 20.03125 16.296875 20.140625 C 16.613281 20.25 16.945312 20.328125 17.28125 20.375 L 17.28125 18.5 L 16.605469 18.300781 C 16.144531 18.160156 15.746094 18.007812 15.410156 17.84375 C 15.070312 17.679688 14.789062 17.492188 14.570312 17.273438 C 14.347656 17.058594 14.183594 16.808594 14.078125 16.527344 C 13.96875 16.246094 13.914062 15.917969 13.914062 15.542969 C 13.914062 15.054688 14 14.621094 14.167969 14.238281 C 14.335938 13.859375 14.566406 13.53125 14.851562 13.261719 C 15.136719 12.988281 15.476562 12.773438 15.867188 12.621094 C 16.253906 12.464844 16.675781 12.363281 17.125 12.316406 L 17.125 10.894531 L 17.5 10.894531 L 17.5 8.75 L 0 8.75 L 0 26.25 L 17.5 26.25 Z M 12.550781 23.625 L 4.800781 23.625 C 4.699219 22.472656 3.78125 21.550781 2.625 21.449219 L 2.625 13.550781 C 3.777344 13.449219 4.699219 12.53125 4.800781 11.375 L 12.550781 11.375 C 10.765625 12.820312 9.625 15.027344 9.625 17.5 C 9.625 19.972656 10.765625 22.179688 12.550781 23.625 Z M 12.550781 23.625 "/>
<path style=" stroke:none;fill-rule:nonzero;fill:rgb(100%,100%,100%);fill-opacity:1;" d="M 17.125 12.316406 C 16.675781 12.363281 16.253906 12.464844 15.867188 12.621094 C 15.476562 12.773438 15.136719 12.988281 14.851562 13.261719 C 14.566406 13.53125 14.335938 13.859375 14.167969 14.238281 C 14 14.621094 13.914062 15.054688 13.914062 15.542969 C 13.914062 15.917969 13.96875 16.246094 14.078125 16.527344 C 14.183594 16.808594 14.347656 17.058594 14.570312 17.273438 C 14.789062 17.492188 15.070312 17.679688 15.410156 17.84375 C 15.746094 18.007812 16.144531 18.160156 16.605469 18.304688 L 17.28125 18.5 L 17.28125 20.375 C 16.945312 20.328125 16.613281 20.25 16.296875 20.140625 C 15.976562 20.03125 15.691406 19.921875 15.4375 19.804688 C 15.183594 19.6875 14.972656 19.574219 14.808594 19.464844 C 14.644531 19.355469 14.542969 19.28125 14.507812 19.234375 L 13.492188 21.246094 C 14 21.585938 14.570312 21.859375 15.203125 22.0625 C 15.835938 22.269531 16.480469 22.402344 17.125 22.457031 L 17.125 24.105469 L 18.097656 24.105469 L 18.097656 22.472656 C 18.550781 22.453125 18.980469 22.382812 19.386719 22.261719 C 19.796875 22.140625 20.15625 21.957031 20.472656 21.71875 C 20.785156 21.480469 21.039062 21.171875 21.226562 20.796875 C 21.414062 20.421875 21.507812 19.964844 21.507812 19.429688 C 21.507812 18.96875 21.433594 18.574219 21.289062 18.246094 C 21.144531 17.917969 20.9375 17.640625 20.667969 17.410156 C 20.402344 17.179688 20.074219 16.984375 19.691406 16.832031 C 19.304688 16.675781 18.875 16.53125 18.394531 16.402344 L 17.945312 16.289062 L 17.945312 14.375 C 18.207031 14.410156 18.46875 14.472656 18.726562 14.5625 C 18.984375 14.652344 19.21875 14.746094 19.429688 14.84375 C 19.640625 14.945312 19.816406 15.035156 19.949219 15.121094 C 20.085938 15.203125 20.167969 15.265625 20.199219 15.304688 L 21.210938 13.386719 C 20.816406 13.160156 20.351562 12.941406 19.816406 12.726562 C 19.28125 12.507812 18.707031 12.375 18.097656 12.316406 L 18.097656 10.894531 L 17.125 10.894531 Z M 17.945312 18.710938 C 18.273438 18.824219 18.535156 18.949219 18.734375 19.085938 C 18.929688 19.222656 19.027344 19.410156 19.027344 19.65625 C 19.027344 20.125 18.667969 20.375 17.945312 20.402344 Z M 17.28125 16.089844 C 16.953125 15.988281 16.707031 15.867188 16.542969 15.730469 C 16.378906 15.597656 16.296875 15.410156 16.296875 15.175781 C 16.296875 14.6875 16.625 14.414062 17.28125 14.359375 Z M 17.28125 16.089844 "/>
</g>
</svg>
