<?xml version="1.0" encoding="UTF-8"?>
<svg xmlns="http://www.w3.org/2000/svg" xmlns:xlink="http://www.w3.org/1999/xlink" width="27pt" height="27pt" viewBox="0 0 27 27" version="1.1">
<g id="surface1">
<path style=" stroke:none;fill-rule:nonzero;fill:rgb(0%,0%,0%);fill-opacity:1;" d="M 19.484375 7.25 C 19.605469 6.941406 19.4375 7.363281 19.484375 7.25 Z M 19.484375 7.25 "/>
<path style=" stroke:none;fill-rule:nonzero;fill:rgb(0%,0%,0%);fill-opacity:1;" d="M 26.757812 12.914062 L 20.863281 6.984375 C 20.445312 6.546875 19.707031 6.695312 19.484375 7.25 C 19.4375 7.363281 19.417969 7.484375 19.417969 7.605469 L 19.417969 19.398438 C 19.398438 20.148438 20.324219 20.566406 20.855469 20.027344 L 26.757812 14.121094 C 27.082031 13.796875 27.082031 13.242188 26.757812 12.914062 Z M 21.09375 17.367188 L 21.09375 9.675781 L 24.972656 13.519531 Z M 21.09375 17.367188 "/>
<path style=" stroke:none;fill-rule:nonzero;fill:rgb(0%,0%,0%);fill-opacity:1;" d="M 16.03125 10.988281 C 14.632812 10.988281 13.5 12.121094 13.5 13.519531 C 13.5 14.917969 14.632812 16.050781 16.03125 16.050781 C 17.429688 16.050781 18.5625 14.917969 18.5625 13.519531 C 18.5625 12.121094 17.429688 10.988281 16.03125 10.988281 Z M 16.03125 14.363281 C 15.566406 14.363281 15.1875 13.988281 15.1875 13.519531 C 15.1875 13.054688 15.566406 12.675781 16.03125 12.675781 C 16.496094 12.675781 16.875 13.054688 16.875 13.519531 C 16.875 13.988281 16.496094 14.363281 16.03125 14.363281 Z M 16.03125 14.363281 "/>
<path style=" stroke:none;fill-rule:nonzero;fill:rgb(0%,0%,0%);fill-opacity:1;" d="M 9.28125 10.988281 C 7.882812 10.988281 6.75 12.121094 6.75 13.519531 C 6.75 14.917969 7.882812 16.050781 9.28125 16.050781 C 10.679688 16.050781 11.8125 14.917969 11.8125 13.519531 C 11.8125 12.121094 10.679688 10.988281 9.28125 10.988281 Z M 9.28125 14.363281 C 8.816406 14.363281 8.4375 13.988281 8.4375 13.519531 C 8.4375 13.054688 8.816406 12.675781 9.28125 12.675781 C 9.746094 12.675781 10.125 13.054688 10.125 13.519531 C 10.125 13.988281 9.746094 14.363281 9.28125 14.363281 Z M 9.28125 14.363281 "/>
<path style=" stroke:none;fill-rule:nonzero;fill:rgb(0%,0%,0%);fill-opacity:1;" d="M 2.53125 10.988281 C 1.132812 10.988281 0 12.121094 0 13.519531 C 0 14.917969 1.132812 16.050781 2.53125 16.050781 C 3.929688 16.050781 5.0625 14.917969 5.0625 13.519531 C 5.0625 12.121094 3.929688 10.988281 2.53125 10.988281 Z M 2.53125 14.363281 C 2.066406 14.363281 1.6875 13.988281 1.6875 13.519531 C 1.6875 13.054688 2.066406 12.675781 2.53125 12.675781 C 2.996094 12.675781 3.375 13.054688 3.375 13.519531 C 3.375 13.988281 2.996094 14.363281 2.53125 14.363281 Z M 2.53125 14.363281 "/>
</g>
</svg>
