<?xml version="1.0" encoding="UTF-8"?>
<svg xmlns="http://www.w3.org/2000/svg" xmlns:xlink="http://www.w3.org/1999/xlink" width="35pt" height="35pt" viewBox="0 0 35 35" version="1.1">
<g id="surface1">
<path style=" stroke:none;fill-rule:nonzero;fill:rgb(0%,0%,0%);fill-opacity:1;" d="M 17.5 34.199219 L 17.144531 34.054688 C 0.410156 25.175781 0.894531 10.21875 0.894531 10.21875 L 9.480469 1.492188 C 9.480469 1.492188 13.636719 0.800781 17.5 0.800781 C 21.421875 0.800781 25.445312 1.566406 25.445312 1.566406 L 34.097656 10.21875 C 34.097656 10.21875 34.601562 25.4375 17.78125 34.054688 Z M 2.316406 10.71875 C 2.882812 19.796875 8.558594 27.960938 17.5 32.640625 C 26.441406 27.960938 32.117188 19.796875 32.683594 10.71875 L 24.808594 2.84375 C 19.980469 1.988281 15.019531 1.988281 10.191406 2.84375 Z M 2.316406 10.71875 "/>
<path style=" stroke:none;fill-rule:nonzero;fill:rgb(0%,0%,0%);fill-opacity:1;" d="M 14.945312 24.410156 L 7.710938 17.171875 L 8.703125 16.179688 L 14.945312 22.351562 L 26.296875 11.066406 L 27.289062 12.066406 Z M 14.945312 24.410156 "/>
</g>
</svg>
