<?xml version="1.0" encoding="UTF-8"?>
<svg xmlns="http://www.w3.org/2000/svg" xmlns:xlink="http://www.w3.org/1999/xlink" width="50pt" height="50pt" viewBox="0 0 50 50" version="1.1">
<g id="surface1">
<path style=" stroke:none;fill-rule:nonzero;fill:rgb(0%,0%,0%);fill-opacity:1;" d="M 35.945312 17.269531 C 35.375 17.214844 34.777344 17.222656 34.273438 17.03125 C 33.628906 16.789062 33.113281 16.339844 32.617188 15.890625 C 31.929688 15.265625 30.550781 14.800781 29.625 14.761719 C 28.644531 14.71875 27.621094 14.714844 26.773438 14.871094 C 25.859375 15.042969 26.011719 15.585938 26.9375 15.554688 C 27.703125 15.53125 28.441406 15.496094 29.0625 15.582031 C 29.984375 15.714844 29.757812 16.3125 28.828125 16.34375 C 27.15625 16.402344 25.621094 16.59375 24.269531 16.835938 C 23.875 16.902344 23.453125 16.9375 23.066406 17.015625 C 22.410156 17.144531 22.742188 17.484375 23.667969 17.527344 C 26.164062 17.644531 27.871094 18.308594 29.417969 19.410156 C 29.796875 19.675781 30.597656 20.503906 30.707031 20.5 C 30.78125 20.496094 31.625 19.585938 31.894531 19.410156 C 32.796875 18.808594 34.171875 18.152344 35.761719 17.953125 C 36.6875 17.835938 36.867188 17.363281 35.945312 17.269531 Z M 31.25 18.789062 C 31.121094 18.8125 30.988281 18.824219 30.855469 18.820312 C 29.925781 18.8125 29.804688 18.035156 30.253906 18.214844 C 30.699219 18.390625 31.378906 18.183594 31.582031 17.847656 C 31.78125 17.511719 32.160156 18.621094 31.25 18.789062 Z M 31.25 18.789062 "/>
<path style=" stroke:none;fill-rule:nonzero;fill:rgb(0%,0%,0%);fill-opacity:1;" d="M 39.683594 18.699219 C 38.398438 18.535156 36.941406 18.667969 35.8125 19.066406 C 34.9375 19.375 34.871094 19.882812 35.476562 19.957031 C 36.082031 20.03125 37.183594 19.761719 38.089844 19.554688 C 38.574219 19.445312 39.101562 19.375 39.636719 19.3125 C 40.558594 19.207031 40.601562 18.8125 39.683594 18.699219 Z M 39.683594 18.699219 "/>
<path style=" stroke:none;fill-rule:nonzero;fill:rgb(0%,0%,0%);fill-opacity:1;" d="M 18.425781 20.695312 C 16.472656 20.789062 14.410156 20.859375 12.6875 21.261719 C 11.785156 21.472656 11.835938 21.667969 12.761719 21.566406 C 20.332031 20.746094 28.152344 22.273438 34.179688 24.378906 C 35.058594 24.683594 35.941406 24.777344 36.214844 24.609375 C 36.484375 24.4375 35.863281 23.855469 34.996094 23.523438 C 30.417969 21.765625 24.25 20.421875 18.425781 20.695312 Z M 18.425781 20.695312 "/>
<path style=" stroke:none;fill-rule:nonzero;fill:rgb(0%,0%,0%);fill-opacity:1;" d="M 49.121094 19.617188 C 48.421875 19.007812 47.523438 17.839844 46.984375 17.085938 C 46.167969 15.953125 45.144531 15.023438 44.046875 14.171875 C 43.3125 13.605469 42.886719 12.691406 42.894531 12.054688 C 42.902344 11.417969 42.402344 10.328125 41.722656 9.691406 C 37.792969 6.023438 31.941406 4.292969 24.566406 4.761719 C 13.210938 5.480469 5.441406 10.269531 0.316406 16.785156 C -0.257812 17.515625 -0.0195312 18.382812 0.796875 18.722656 C 1.613281 19.0625 1.992188 19.832031 1.765625 20.519531 C 1.636719 20.914062 1.53125 21.347656 1.488281 21.796875 C 0.695312 30.003906 6.804688 33.058594 12.878906 35.464844 C 15.914062 36.667969 17.996094 38.296875 19.910156 39.824219 C 21.941406 41.441406 23.867188 43.960938 26.25 44.875 C 29.605469 46.160156 33.558594 44.601562 35.363281 42.792969 C 36.953125 41.203125 38.449219 38.464844 38.15625 35.800781 C 38.058594 34.875 37.160156 34.65625 36.457031 35.261719 C 36.121094 35.546875 35.78125 35.824219 35.402344 36.070312 C 34.625 36.578125 33.375 36.203125 33.179688 35.347656 C 32.984375 34.496094 33.875 33.492188 34.730469 33.128906 C 35.449219 32.828125 36.160156 32.519531 36.847656 32.1875 C 37.683594 31.789062 38.324219 31.652344 38.246094 31.957031 C 38.167969 32.257812 39.179688 32.296875 40.074219 32.046875 C 42.488281 31.367188 44.546875 30 45.859375 27.839844 C 46.125 27.402344 46.148438 26.835938 46.457031 26.453125 C 46.964844 25.804688 48.007812 25.398438 48.632812 24.570312 C 49.289062 23.703125 50.144531 21.996094 50.019531 21.003906 C 49.949219 20.445312 49.566406 20.003906 49.121094 19.617188 Z M 3.617188 17.550781 C 5.1875 17.261719 6.945312 17.128906 8.722656 17.160156 C 9.652344 17.179688 10.289062 17.628906 9.910156 17.917969 C 9.691406 18.082031 9.4375 18.242188 9.214844 18.429688 C 8.851562 18.730469 8.316406 19.445312 7.828125 19.519531 C 7.097656 19.628906 5.84375 19 4.855469 18.726562 C 4.363281 18.589844 3.886719 18.449219 3.421875 18.316406 C 2.632812 18.089844 2.707031 17.722656 3.617188 17.550781 Z M 6.6875 26.070312 C 10.980469 24.410156 16.992188 23.859375 22.601562 24.382812 C 23.523438 24.46875 23.707031 25.160156 22.785156 25.273438 C 21.550781 25.425781 19.9375 25.023438 18.328125 24.964844 C 14.308594 24.816406 10.027344 25.488281 6.773438 26.304688 C 5.871094 26.53125 5.824219 26.402344 6.6875 26.070312 Z M 26.734375 32.316406 C 26.65625 32.074219 26.585938 31.820312 26.527344 31.558594 C 26.324219 30.65625 26.878906 29.933594 27.53125 30.171875 C 28.1875 30.414062 28.511719 31.4375 28.597656 32.363281 C 28.640625 32.777344 28.71875 33.175781 28.835938 33.546875 C 29.109375 34.433594 29.269531 35.457031 28.796875 35.863281 C 28.328125 36.269531 27.179688 36.269531 26.402344 35.761719 C 25.230469 35.003906 24.320312 33.988281 23.601562 32.78125 C 23.125 31.984375 22.316406 31.164062 21.65625 31.105469 C 21 31.046875 20.839844 30.398438 21.585938 29.851562 C 22.015625 29.539062 22.515625 29.3125 23.078125 29.246094 C 24 29.136719 24.980469 30.207031 25.300781 31.078125 C 25.527344 31.699219 25.777344 32.292969 26.125 32.792969 C 26.65625 33.554688 27.019531 33.199219 26.734375 32.316406 Z M 8.007812 28.425781 C 11.058594 27.414062 14.886719 26.992188 18.828125 27.078125 C 19.753906 27.101562 20.3125 27.355469 20.035156 27.570312 C 19.757812 27.789062 18.761719 27.90625 17.835938 27.894531 C 14.421875 27.859375 11.070312 28.121094 8.085938 28.683594 C 7.171875 28.851562 7.128906 28.714844 8.007812 28.425781 Z M 32.515625 42.675781 C 30.464844 43.699219 27.507812 43.769531 25.65625 42.597656 C 24.585938 41.917969 23.691406 40.632812 22.683594 39.625 C 20.179688 37.121094 17.261719 34.664062 13.5 33.363281 C 12.625 33.058594 12.632812 33 13.535156 33.21875 C 17.472656 34.175781 20.613281 36.222656 23.277344 38.832031 C 24.292969 39.828125 25.371094 41.65625 26.746094 41.902344 C 28.671875 42.25 31.007812 40.425781 32.613281 40.699219 C 33.527344 40.855469 33.34375 42.261719 32.515625 42.675781 Z M 33.183594 38.238281 C 33.183594 38.457031 33.441406 38.542969 33.617188 38.265625 C 33.789062 37.988281 34.074219 38.140625 34.074219 38.386719 C 34.074219 38.632812 34.714844 38.585938 35.324219 38.03125 C 35.933594 37.476562 36.34375 37.722656 35.992188 38.582031 C 35.953125 38.683594 35.910156 38.78125 35.859375 38.878906 C 35.457031 39.714844 34.398438 39.542969 33.511719 39.261719 C 32.515625 38.941406 31.359375 39.25 29.914062 39.722656 C 28.980469 40.03125 27.785156 40.601562 26.941406 40.417969 C 26.039062 40.21875 25.222656 38.492188 24.664062 37.742188 C 24.265625 37.207031 23.882812 36.753906 23.492188 36.339844 C 22.855469 35.664062 22.945312 35.417969 23.6875 35.855469 C 24.105469 36.101562 24.53125 36.394531 24.960938 36.753906 C 25.6875 37.359375 26.554688 38.703125 27.4375 38.734375 C 28.351562 38.765625 29.0625 37.964844 29.730469 37.234375 C 30.355469 36.550781 31.042969 36.71875 30.96875 37.402344 C 30.894531 38.085938 31.117188 38.523438 31.390625 38.234375 C 31.660156 37.945312 31.949219 37.777344 31.996094 38.015625 C 32.042969 38.25 32.363281 38.355469 32.625 38.101562 C 32.882812 37.839844 33.183594 38.019531 33.183594 38.238281 Z M 43.929688 27.855469 C 43.40625 28.679688 42.742188 29.359375 41.921875 29.882812 C 41.140625 30.382812 40.445312 30.246094 40.765625 29.929688 C 40.953125 29.746094 41.167969 29.546875 41.304688 29.324219 C 41.472656 29.058594 41.617188 28.75 41.722656 28.421875 C 41.890625 27.898438 41.613281 27.683594 41.390625 28.074219 C 41.167969 28.46875 40.796875 28.550781 40.792969 28.292969 C 40.789062 28.035156 40.5 28.15625 40.234375 28.550781 C 39.972656 28.941406 39.5625 29.039062 39.539062 28.746094 C 39.511719 28.453125 39.226562 28.480469 39 28.800781 C 38.78125 29.121094 38.410156 29.148438 38.425781 28.882812 C 38.441406 28.617188 37.910156 29.0625 37.28125 29.742188 C 36.695312 30.382812 36.023438 30.9375 35.183594 31.320312 C 34.339844 31.710938 33.960938 31.222656 34.351562 30.472656 C 34.746094 29.71875 34.21875 28.644531 33.375 28.25 C 31.828125 27.535156 30.105469 26.988281 28.207031 26.621094 C 27.296875 26.445312 27.0625 25.9375 27.820312 25.695312 C 28.578125 25.453125 29.90625 25.679688 30.699219 26.164062 C 32.414062 27.207031 34.25 28.515625 36.847656 28.332031 C 38.722656 28.203125 40.503906 27.574219 42.097656 26.847656 C 42.585938 26.625 42.941406 26.328125 43.328125 26.179688 C 44.054688 25.902344 44.425781 27.074219 43.929688 27.855469 Z M 44.375 21.894531 C 43.496094 22.109375 41.882812 21.355469 40.414062 21.203125 C 38.628906 21.015625 37.09375 20.910156 35.355469 20.9375 C 34.429688 20.953125 34.371094 21.304688 35.261719 21.554688 C 36.335938 21.847656 37.4375 22.0625 38.433594 22.488281 C 39.3125 22.867188 40.140625 23.304688 40.859375 23.832031 C 41.609375 24.382812 41.449219 25.351562 40.628906 25.78125 C 39.222656 26.519531 37.414062 27.25 35.660156 26.847656 C 34.496094 26.582031 33.523438 26.089844 32.585938 25.558594 C 31.734375 25.078125 30.710938 24.058594 29.714844 23.777344 C 22.460938 21.71875 12.265625 21.445312 5.21875 24.027344 C 4.347656 24.347656 3.558594 23.917969 3.59375 22.992188 C 3.609375 22.601562 3.648438 22.222656 3.703125 21.851562 C 3.847656 20.933594 4.800781 20.363281 5.699219 20.59375 C 5.933594 20.652344 6.164062 20.714844 6.398438 20.777344 C 7.292969 21.015625 8.597656 20.714844 9.316406 20.128906 C 12.917969 17.210938 16.8125 14.585938 21.167969 12.417969 C 22 12.007812 21.945312 11.554688 21.019531 11.46875 C 17.679688 11.15625 14.0625 11.605469 11.140625 12.273438 C 10.234375 12.476562 9.441406 12.683594 9.445312 12.636719 C 9.449219 12.585938 10.054688 12.0625 10.785156 11.492188 C 14.914062 8.265625 21.085938 6.144531 29.121094 6.542969 C 33.074219 6.738281 36.078125 7.894531 38.730469 9.8125 C 39.484375 10.359375 40.921875 11.132812 41.007812 11.792969 C 41.054688 12.148438 40.886719 12.46875 40.671875 12.757812 C 40.328125 13.222656 40.347656 14.167969 40.53125 14.96875 C 40.714844 15.773438 41.113281 16.242188 41.285156 15.761719 C 41.453125 15.277344 42.125 15.328125 42.535156 16.160156 C 42.609375 16.3125 42.679688 16.464844 42.75 16.621094 C 43.121094 17.472656 43.679688 17.808594 43.777344 17.363281 C 43.875 16.921875 44.539062 16.945312 45.113281 17.671875 C 45.171875 17.742188 45.226562 17.816406 45.28125 17.890625 C 45.828125 18.640625 45.828125 19.960938 45.449219 20.765625 C 45.199219 21.304688 44.894531 21.769531 44.375 21.894531 Z M 46.246094 24.378906 C 45.488281 24.910156 45.042969 24.113281 45.585938 23.359375 C 45.949219 22.859375 46.320312 22.371094 46.644531 21.832031 C 47.125 21.039062 48.226562 20.707031 48.085938 21.625 C 47.945312 22.5625 47.152344 23.746094 46.246094 24.378906 Z M 46.246094 24.378906 "/>
</g>
</svg>
