<?xml version="1.0" encoding="UTF-8"?>
<svg xmlns="http://www.w3.org/2000/svg" xmlns:xlink="http://www.w3.org/1999/xlink" width="35pt" height="35pt" viewBox="0 0 35 35" version="1.1">
<g id="surface1">
<path style=" stroke:none;fill-rule:nonzero;fill:rgb(48.627451%,40%,33.333333%);fill-opacity:1;" d="M 27.746094 12.289062 L 27.746094 14.867188 C 27.746094 15.621094 27.414062 16.332031 26.835938 16.816406 C 26.257812 17.300781 25.5 17.503906 24.757812 17.371094 L 21.433594 16.777344 L 21.183594 18.191406 L 24.503906 18.785156 C 24.738281 18.824219 24.972656 18.847656 25.207031 18.847656 C 26.132812 18.847656 27.035156 18.523438 27.757812 17.917969 C 28.664062 17.160156 29.183594 16.046875 29.183594 14.867188 L 29.183594 12.289062 Z M 27.746094 12.289062 "/>
<path style=" stroke:none;fill-rule:nonzero;fill:rgb(48.627451%,40%,33.333333%);fill-opacity:1;" d="M 27.746094 11.683594 L 27.746094 11.953125 L 29.183594 11.953125 L 29.183594 11.683594 C 29.183594 5.242188 23.941406 0 17.5 0 C 11.058594 0 5.816406 5.242188 5.816406 11.683594 L 7.253906 11.683594 C 7.253906 6.03125 11.851562 1.4375 17.5 1.4375 C 23.148438 1.4375 27.746094 6.03125 27.746094 11.683594 Z M 27.746094 11.683594 "/>
<path style=" stroke:none;fill-rule:nonzero;fill:rgb(90.588235%,44.705882%,0%);fill-opacity:1;" d="M 8.484375 14.664062 C 6.988281 14.664062 5.769531 13.445312 5.769531 11.945312 C 5.769531 10.449219 6.988281 9.230469 8.484375 9.230469 L 10.082031 9.230469 L 10.082031 14.664062 Z M 8.484375 14.664062 "/>
<path style=" stroke:none;fill-rule:nonzero;fill:rgb(90.588235%,44.705882%,0%);fill-opacity:1;" d="M 24.917969 14.664062 L 24.917969 9.230469 L 26.515625 9.230469 C 28.011719 9.230469 29.230469 10.449219 29.230469 11.945312 C 29.230469 13.445312 28.011719 14.664062 26.515625 14.664062 Z M 24.917969 14.664062 "/>
<path style=" stroke:none;fill-rule:nonzero;fill:rgb(31.764706%,71.764706%,65.098039%);fill-opacity:1;" d="M 25.964844 27.703125 L 25.964844 34.972656 L 17.527344 34.972656 L 17.527344 22.660156 L 21.28125 25.464844 L 22.523438 20.890625 C 22.863281 21.140625 23.183594 21.417969 23.484375 21.71875 C 25.015625 23.25 25.964844 25.367188 25.964844 27.703125 Z M 25.964844 27.703125 "/>
<path style=" stroke:none;fill-rule:nonzero;fill:rgb(53.333333%,78.823529%,70.196078%);fill-opacity:1;" d="M 22.523438 20.890625 L 21.28125 25.464844 L 17.527344 22.660156 L 17.527344 22.640625 C 17.527344 22.632812 17.523438 22.628906 17.519531 22.621094 L 20.125 19.652344 C 20.992188 19.9375 21.800781 20.355469 22.523438 20.890625 Z M 22.523438 20.890625 "/>
<path style=" stroke:none;fill-rule:nonzero;fill:rgb(89.803922%,86.27451%,77.647059%);fill-opacity:1;" d="M 20.125 19.652344 L 17.519531 22.621094 C 17.511719 22.617188 17.507812 22.617188 17.5 22.617188 C 17.492188 22.617188 17.488281 22.617188 17.480469 22.621094 L 14.875 19.65625 C 15.703125 19.382812 16.585938 19.238281 17.5 19.238281 C 18.414062 19.238281 19.296875 19.382812 20.125 19.652344 Z M 20.125 19.652344 "/>
<path style=" stroke:none;fill-rule:nonzero;fill:rgb(53.333333%,78.823529%,70.196078%);fill-opacity:1;" d="M 17.527344 22.660156 L 17.527344 34.972656 L 17.5 34.972656 L 17.5 22.640625 Z M 17.527344 22.660156 "/>
<path style=" stroke:none;fill-rule:nonzero;fill:rgb(53.333333%,78.823529%,70.196078%);fill-opacity:1;" d="M 17.519531 22.621094 C 17.523438 22.628906 17.527344 22.632812 17.527344 22.640625 L 17.527344 22.660156 L 17.5 22.640625 Z M 17.519531 22.621094 "/>
<path style=" stroke:none;fill-rule:nonzero;fill:rgb(53.333333%,78.823529%,70.196078%);fill-opacity:1;" d="M 17.5 22.617188 C 17.507812 22.617188 17.511719 22.617188 17.519531 22.621094 L 17.5 22.640625 L 17.480469 22.621094 C 17.488281 22.617188 17.492188 22.617188 17.5 22.617188 Z M 17.5 22.617188 "/>
<path style=" stroke:none;fill-rule:nonzero;fill:rgb(53.333333%,78.823529%,70.196078%);fill-opacity:1;" d="M 17.5 22.640625 L 17.5 34.972656 L 17.472656 34.972656 L 17.472656 22.660156 Z M 17.5 22.640625 "/>
<path style=" stroke:none;fill-rule:nonzero;fill:rgb(53.333333%,78.823529%,70.196078%);fill-opacity:1;" d="M 17.472656 22.640625 C 17.472656 22.632812 17.476562 22.628906 17.480469 22.621094 L 17.5 22.640625 L 17.472656 22.660156 Z M 17.472656 22.640625 "/>
<path style=" stroke:none;fill-rule:nonzero;fill:rgb(53.333333%,78.823529%,70.196078%);fill-opacity:1;" d="M 17.5 35 C 17.484375 35 17.472656 34.988281 17.472656 34.972656 L 17.527344 34.972656 C 17.527344 34.988281 17.515625 35 17.5 35 Z M 17.5 35 "/>
<path style=" stroke:none;fill-rule:nonzero;fill:rgb(53.333333%,78.823529%,70.196078%);fill-opacity:1;" d="M 14.875 19.65625 L 17.480469 22.621094 C 17.476562 22.628906 17.472656 22.632812 17.472656 22.640625 L 17.472656 22.660156 L 13.714844 25.464844 L 12.476562 20.890625 C 13.199219 20.359375 14.007812 19.9375 14.875 19.65625 Z M 14.875 19.65625 "/>
<path style=" stroke:none;fill-rule:nonzero;fill:rgb(31.764706%,71.764706%,65.098039%);fill-opacity:1;" d="M 17.472656 22.660156 L 17.472656 34.972656 L 9.035156 34.972656 L 9.035156 27.703125 C 9.035156 24.910156 10.390625 22.433594 12.476562 20.890625 L 13.714844 25.464844 Z M 17.472656 22.660156 "/>
<path style=" stroke:none;fill-rule:nonzero;fill:rgb(53.333333%,78.823529%,70.196078%);fill-opacity:1;" d="M 19.515625 28.390625 C 19.46875 28.390625 19.414062 28.382812 19.363281 28.375 C 19.3125 28.363281 19.265625 28.347656 19.21875 28.332031 C 19.171875 28.308594 19.125 28.285156 19.082031 28.257812 C 19.039062 28.230469 19 28.195312 18.964844 28.160156 C 18.925781 28.125 18.894531 28.082031 18.867188 28.039062 C 18.835938 28 18.8125 27.953125 18.792969 27.90625 C 18.773438 27.859375 18.757812 27.808594 18.75 27.757812 C 18.738281 27.707031 18.734375 27.65625 18.734375 27.605469 C 18.734375 27.554688 18.738281 27.503906 18.75 27.453125 C 18.757812 27.402344 18.773438 27.355469 18.792969 27.304688 C 18.8125 27.257812 18.835938 27.214844 18.867188 27.171875 C 18.894531 27.128906 18.925781 27.085938 18.964844 27.050781 C 19 27.015625 19.039062 26.984375 19.082031 26.953125 C 19.125 26.925781 19.171875 26.902344 19.21875 26.882812 C 19.265625 26.863281 19.3125 26.847656 19.363281 26.835938 C 19.464844 26.816406 19.570312 26.816406 19.671875 26.835938 C 19.722656 26.847656 19.769531 26.863281 19.816406 26.882812 C 19.863281 26.902344 19.910156 26.925781 19.953125 26.953125 C 19.996094 26.984375 20.035156 27.015625 20.070312 27.050781 C 20.21875 27.199219 20.300781 27.398438 20.300781 27.605469 C 20.300781 27.65625 20.296875 27.707031 20.285156 27.757812 C 20.277344 27.808594 20.261719 27.859375 20.242188 27.90625 C 20.222656 27.953125 20.199219 28 20.167969 28.039062 C 20.140625 28.082031 20.105469 28.125 20.070312 28.160156 C 20.035156 28.195312 19.996094 28.230469 19.953125 28.257812 C 19.910156 28.285156 19.863281 28.308594 19.816406 28.332031 C 19.769531 28.347656 19.71875 28.363281 19.671875 28.375 C 19.621094 28.382812 19.566406 28.390625 19.515625 28.390625 Z M 19.515625 28.390625 "/>
<path style=" stroke:none;fill-rule:nonzero;fill:rgb(53.333333%,78.823529%,70.196078%);fill-opacity:1;" d="M 19.515625 32.097656 C 19.46875 32.097656 19.414062 32.089844 19.363281 32.082031 C 19.3125 32.070312 19.265625 32.054688 19.21875 32.035156 C 19.171875 32.015625 19.125 31.992188 19.082031 31.964844 C 19.039062 31.9375 19 31.902344 18.964844 31.867188 C 18.925781 31.832031 18.894531 31.789062 18.867188 31.746094 C 18.835938 31.707031 18.8125 31.660156 18.792969 31.613281 C 18.773438 31.566406 18.757812 31.515625 18.75 31.464844 C 18.738281 31.414062 18.734375 31.363281 18.734375 31.3125 C 18.734375 31.261719 18.738281 31.210938 18.75 31.160156 C 18.757812 31.109375 18.773438 31.0625 18.792969 31.011719 C 18.8125 30.964844 18.835938 30.921875 18.867188 30.878906 C 18.894531 30.835938 18.925781 30.792969 18.964844 30.757812 C 19 30.722656 19.039062 30.691406 19.082031 30.660156 C 19.125 30.632812 19.171875 30.609375 19.21875 30.589844 C 19.265625 30.570312 19.3125 30.554688 19.363281 30.542969 C 19.464844 30.523438 19.570312 30.523438 19.671875 30.542969 C 19.722656 30.554688 19.769531 30.570312 19.816406 30.589844 C 19.863281 30.609375 19.910156 30.632812 19.953125 30.660156 C 19.996094 30.691406 20.035156 30.722656 20.070312 30.757812 C 20.21875 30.90625 20.300781 31.105469 20.300781 31.3125 C 20.300781 31.363281 20.296875 31.414062 20.285156 31.464844 C 20.277344 31.515625 20.261719 31.566406 20.242188 31.613281 C 20.222656 31.660156 20.199219 31.707031 20.167969 31.746094 C 20.140625 31.789062 20.105469 31.832031 20.070312 31.867188 C 20.035156 31.902344 19.996094 31.9375 19.953125 31.964844 C 19.910156 31.992188 19.863281 32.015625 19.816406 32.035156 C 19.769531 32.054688 19.71875 32.070312 19.671875 32.082031 C 19.621094 32.089844 19.566406 32.097656 19.515625 32.097656 Z M 19.515625 32.097656 "/>
<path style=" stroke:none;fill-rule:nonzero;fill:rgb(98.823529%,95.686275%,87.058824%);fill-opacity:1;" d="M 21.183594 18.191406 L 21.433594 16.777344 L 23.609375 17.164062 C 24.789062 15.769531 25.503906 13.96875 25.503906 12 C 25.503906 7.578125 21.921875 3.996094 17.5 3.996094 C 13.082031 3.996094 9.496094 7.578125 9.496094 12 C 9.496094 16.417969 13.082031 20 17.5 20 C 19.304688 20 20.972656 19.402344 22.3125 18.394531 Z M 21.183594 18.191406 "/>
<path style=" stroke:none;fill-rule:nonzero;fill:rgb(48.627451%,40%,33.333333%);fill-opacity:1;" d="M 14.574219 11.492188 C 14.523438 11.492188 14.472656 11.488281 14.421875 11.476562 C 14.371094 11.464844 14.320312 11.449219 14.273438 11.429688 C 14.226562 11.414062 14.179688 11.386719 14.140625 11.359375 C 14.097656 11.332031 14.054688 11.296875 14.019531 11.261719 C 13.984375 11.226562 13.949219 11.183594 13.921875 11.140625 C 13.894531 11.101562 13.871094 11.054688 13.851562 11.007812 C 13.832031 10.960938 13.816406 10.910156 13.804688 10.859375 C 13.796875 10.808594 13.789062 10.757812 13.789062 10.707031 C 13.789062 10.5 13.875 10.300781 14.019531 10.152344 C 14.054688 10.117188 14.097656 10.085938 14.140625 10.054688 C 14.179688 10.027344 14.226562 10.003906 14.273438 9.984375 C 14.320312 9.964844 14.371094 9.949219 14.421875 9.941406 C 14.675781 9.886719 14.945312 9.972656 15.128906 10.152344 C 15.273438 10.300781 15.355469 10.5 15.355469 10.707031 C 15.355469 10.914062 15.273438 11.117188 15.128906 11.261719 C 14.980469 11.40625 14.78125 11.492188 14.574219 11.492188 Z M 14.574219 11.492188 "/>
<path style=" stroke:none;fill-rule:nonzero;fill:rgb(48.627451%,40%,33.333333%);fill-opacity:1;" d="M 20.425781 11.492188 C 20.375 11.492188 20.324219 11.488281 20.273438 11.476562 C 20.222656 11.464844 20.175781 11.449219 20.125 11.429688 C 20.078125 11.414062 20.035156 11.386719 19.992188 11.359375 C 19.949219 11.332031 19.90625 11.296875 19.871094 11.261719 C 19.835938 11.226562 19.804688 11.183594 19.773438 11.140625 C 19.746094 11.101562 19.722656 11.054688 19.703125 11.007812 C 19.683594 10.960938 19.667969 10.910156 19.65625 10.859375 C 19.648438 10.808594 19.640625 10.757812 19.640625 10.707031 C 19.640625 10.65625 19.648438 10.605469 19.65625 10.554688 C 19.667969 10.503906 19.683594 10.453125 19.703125 10.40625 C 19.722656 10.359375 19.746094 10.316406 19.773438 10.273438 C 19.804688 10.230469 19.835938 10.191406 19.871094 10.152344 C 19.90625 10.117188 19.949219 10.085938 19.992188 10.054688 C 20.035156 10.027344 20.078125 10.003906 20.125 9.984375 C 20.175781 9.964844 20.222656 9.949219 20.273438 9.941406 C 20.375 9.917969 20.476562 9.917969 20.578125 9.941406 C 20.628906 9.949219 20.679688 9.964844 20.726562 9.984375 C 20.773438 10.003906 20.820312 10.027344 20.863281 10.054688 C 20.90625 10.085938 20.945312 10.117188 20.980469 10.152344 C 21.015625 10.191406 21.050781 10.230469 21.078125 10.273438 C 21.105469 10.316406 21.128906 10.359375 21.152344 10.40625 C 21.167969 10.453125 21.183594 10.503906 21.195312 10.554688 C 21.203125 10.605469 21.210938 10.65625 21.210938 10.707031 C 21.210938 10.757812 21.203125 10.808594 21.195312 10.859375 C 21.183594 10.910156 21.167969 10.960938 21.152344 11.007812 C 21.128906 11.054688 21.105469 11.101562 21.078125 11.140625 C 21.050781 11.183594 21.015625 11.226562 20.980469 11.261719 C 20.945312 11.296875 20.90625 11.332031 20.863281 11.359375 C 20.820312 11.386719 20.773438 11.414062 20.726562 11.429688 C 20.679688 11.449219 20.628906 11.464844 20.578125 11.476562 C 20.527344 11.488281 20.476562 11.492188 20.425781 11.492188 Z M 20.425781 11.492188 "/>
<path style=" stroke:none;fill-rule:nonzero;fill:rgb(53.333333%,78.823529%,70.196078%);fill-opacity:1;" d="M 16.742188 22.660156 L 18.207031 22.660156 L 18.207031 34.972656 L 16.742188 34.972656 Z M 16.742188 22.660156 "/>
<path style=" stroke:none;fill-rule:nonzero;fill:rgb(90.588235%,44.705882%,0%);fill-opacity:1;" d="M 21.78125 17.367188 C 21.78125 18.0625 21.214844 18.628906 20.519531 18.628906 C 19.820312 18.628906 19.253906 18.0625 19.253906 17.367188 C 19.253906 16.667969 19.820312 16.105469 20.519531 16.105469 C 21.214844 16.105469 21.78125 16.667969 21.78125 17.367188 Z M 21.78125 17.367188 "/>
</g>
</svg>
