<?xml version="1.0" encoding="UTF-8"?>
<svg xmlns="http://www.w3.org/2000/svg" xmlns:xlink="http://www.w3.org/1999/xlink" width="35pt" height="35pt" viewBox="0 0 35 35" version="1.1">
<g id="surface1">
<path style=" stroke:none;fill-rule:nonzero;fill:rgb(74.117647%,76.470588%,78.039216%);fill-opacity:1;" d="M 26.632812 15.585938 C 26.652344 15.605469 26.664062 15.632812 26.664062 15.660156 C 26.664062 15.722656 26.617188 15.769531 26.558594 15.769531 L 15.4375 15.769531 C 13.925781 15.769531 13.136719 15.378906 13.136719 14.996094 C 13.136719 14.984375 13.136719 14.96875 13.136719 14.957031 C 13.085938 13.984375 13.4375 12.996094 13.757812 12.3125 L 14.089844 13.652344 C 14.175781 13.988281 14.480469 14.226562 14.824219 14.226562 L 17.304688 14.226562 L 17.59375 14.832031 C 17.71875 15.097656 17.984375 15.265625 18.277344 15.265625 L 23.785156 15.265625 C 24.113281 15.265625 24.402344 15.054688 24.503906 14.746094 C 24.5625 14.570312 24.550781 14.386719 24.484375 14.226562 L 25.230469 14.226562 C 25.257812 14.226562 25.285156 14.238281 25.304688 14.257812 Z M 26.632812 15.585938 "/>
<path style=" stroke:none;fill-rule:nonzero;fill:rgb(74.117647%,76.470588%,78.039216%);fill-opacity:1;" d="M 21.507812 13.75 L 18.757812 13.75 L 17.234375 10.558594 Z M 21.507812 13.75 "/>
<path style=" stroke:none;fill-rule:nonzero;fill:rgb(20.784314%,38.431373%,44.705882%);fill-opacity:1;" d="M 32.640625 14.820312 L 32.640625 27.875 L 6.207031 27.875 L 6.207031 22.511719 L 30.453125 22.511719 C 31.097656 22.511719 31.621094 21.992188 31.621094 21.347656 L 31.621094 14.820312 Z M 32.640625 14.820312 "/>
<path style=" stroke:none;fill-rule:nonzero;fill:rgb(20.392157%,59.607843%,85.882353%);fill-opacity:1;" d="M 29.289062 7.125 L 29.289062 20.179688 L 2.359375 20.179688 L 2.359375 7.125 Z M 28.179688 15.660156 C 28.179688 15.226562 28.011719 14.820312 27.707031 14.511719 L 26.375 13.183594 C 26.070312 12.878906 25.664062 12.710938 25.230469 12.710938 L 22.644531 12.710938 L 17.585938 8.929688 C 17.453125 8.832031 17.292969 8.777344 17.128906 8.777344 L 15.90625 8.777344 C 15.648438 8.777344 15.40625 8.910156 15.265625 9.128906 C 15.128906 9.351562 15.109375 9.628906 15.222656 9.859375 L 16.582031 12.710938 L 15.417969 12.710938 L 14.949219 10.835938 C 14.863281 10.496094 14.5625 10.261719 14.214844 10.261719 L 13.601562 10.261719 C 13.347656 10.261719 13.113281 10.386719 12.972656 10.597656 C 12.914062 10.6875 11.515625 12.796875 11.621094 15.019531 C 11.628906 15.578125 11.941406 17.285156 15.4375 17.285156 L 26.558594 17.285156 C 27.453125 17.285156 28.179688 16.554688 28.179688 15.660156 Z M 10.871094 13.652344 C 10.871094 13.234375 10.53125 12.894531 10.113281 12.894531 L 6.265625 12.894531 C 5.847656 12.894531 5.507812 13.234375 5.507812 13.652344 C 5.507812 14.070312 5.847656 14.410156 6.265625 14.410156 L 10.113281 14.410156 C 10.53125 14.410156 10.871094 14.070312 10.871094 13.652344 Z M 10.871094 15.578125 C 10.871094 15.15625 10.53125 14.820312 10.113281 14.820312 L 4.34375 14.820312 C 3.925781 14.820312 3.585938 15.15625 3.585938 15.578125 C 3.585938 15.996094 3.925781 16.335938 4.34375 16.335938 L 10.113281 16.335938 C 10.53125 16.335938 10.871094 15.996094 10.871094 15.578125 Z M 10.871094 15.578125 "/>
<path style=" stroke:none;fill-rule:nonzero;fill:rgb(0%,0%,0%);fill-opacity:1;" d="M 34.96875 13.652344 L 34.96875 29.039062 C 34.96875 29.683594 34.449219 30.207031 33.804688 30.207031 L 5.042969 30.207031 C 4.398438 30.207031 3.875 29.683594 3.875 29.039062 L 3.875 22.511719 L 1.195312 22.511719 C 0.550781 22.511719 0.03125 21.992188 0.03125 21.347656 L 0.03125 5.960938 C 0.03125 5.316406 0.550781 4.792969 1.195312 4.792969 L 30.453125 4.792969 C 31.097656 4.792969 31.621094 5.316406 31.621094 5.960938 L 31.621094 12.488281 L 33.804688 12.488281 C 34.449219 12.488281 34.96875 13.007812 34.96875 13.652344 Z M 32.640625 27.875 L 32.640625 14.820312 L 31.621094 14.820312 L 31.621094 21.347656 C 31.621094 21.992188 31.097656 22.511719 30.453125 22.511719 L 6.207031 22.511719 L 6.207031 27.875 Z M 29.289062 20.179688 L 29.289062 7.125 L 2.359375 7.125 L 2.359375 20.179688 Z M 29.289062 20.179688 "/>
<path style=" stroke:none;fill-rule:nonzero;fill:rgb(0%,0%,0%);fill-opacity:1;" d="M 27.707031 14.511719 C 28.011719 14.820312 28.179688 15.226562 28.179688 15.660156 C 28.179688 16.554688 27.453125 17.285156 26.558594 17.285156 L 15.4375 17.285156 C 11.941406 17.285156 11.628906 15.578125 11.621094 15.019531 C 11.515625 12.796875 12.914062 10.6875 12.972656 10.597656 C 13.113281 10.386719 13.347656 10.261719 13.601562 10.261719 L 14.214844 10.261719 C 14.5625 10.261719 14.863281 10.496094 14.949219 10.835938 L 15.417969 12.710938 L 16.582031 12.710938 L 15.222656 9.859375 C 15.109375 9.628906 15.128906 9.351562 15.265625 9.128906 C 15.40625 8.910156 15.648438 8.777344 15.90625 8.777344 L 17.128906 8.777344 C 17.292969 8.777344 17.453125 8.832031 17.585938 8.929688 L 22.644531 12.710938 L 25.230469 12.710938 C 25.664062 12.710938 26.070312 12.878906 26.375 13.183594 Z M 26.664062 15.660156 C 26.664062 15.632812 26.652344 15.605469 26.632812 15.585938 L 25.304688 14.257812 C 25.285156 14.238281 25.257812 14.226562 25.230469 14.226562 L 24.484375 14.226562 C 24.550781 14.386719 24.5625 14.570312 24.503906 14.746094 C 24.402344 15.054688 24.113281 15.265625 23.785156 15.265625 L 18.277344 15.265625 C 17.984375 15.265625 17.71875 15.097656 17.59375 14.832031 L 17.304688 14.226562 L 14.824219 14.226562 C 14.480469 14.226562 14.175781 13.988281 14.089844 13.652344 L 13.757812 12.3125 C 13.4375 12.996094 13.085938 13.984375 13.136719 14.957031 C 13.136719 14.96875 13.136719 14.984375 13.136719 14.996094 C 13.136719 15.378906 13.925781 15.769531 15.4375 15.769531 L 26.558594 15.769531 C 26.617188 15.769531 26.664062 15.722656 26.664062 15.660156 Z M 18.757812 13.75 L 21.507812 13.75 L 17.234375 10.558594 Z M 18.757812 13.75 "/>
<path style=" stroke:none;fill-rule:nonzero;fill:rgb(0%,0%,0%);fill-opacity:1;" d="M 10.113281 12.894531 C 10.53125 12.894531 10.871094 13.234375 10.871094 13.652344 C 10.871094 14.070312 10.53125 14.410156 10.113281 14.410156 L 6.265625 14.410156 C 5.847656 14.410156 5.507812 14.070312 5.507812 13.652344 C 5.507812 13.234375 5.847656 12.894531 6.265625 12.894531 Z M 10.113281 12.894531 "/>
<path style=" stroke:none;fill-rule:nonzero;fill:rgb(0%,0%,0%);fill-opacity:1;" d="M 10.113281 14.820312 C 10.53125 14.820312 10.871094 15.15625 10.871094 15.578125 C 10.871094 15.996094 10.53125 16.335938 10.113281 16.335938 L 4.34375 16.335938 C 3.925781 16.335938 3.585938 15.996094 3.585938 15.578125 C 3.585938 15.15625 3.925781 14.820312 4.34375 14.820312 Z M 10.113281 14.820312 "/>
</g>
</svg>
