<?xml version="1.0" encoding="UTF-8"?>
<svg xmlns="http://www.w3.org/2000/svg" xmlns:xlink="http://www.w3.org/1999/xlink" width="35pt" height="35pt" viewBox="0 0 35 35" version="1.1">
<g id="surface1">
<path style=" stroke:none;fill-rule:nonzero;fill:rgb(0%,0%,0%);fill-opacity:1;" d="M 12.316406 5.265625 C 12.121094 4.796875 11.84375 4.410156 11.484375 4.113281 C 10.234375 3.074219 7.914062 3.246094 7.214844 3.328125 C 3.714844 5.875 1.1875 9.691406 0.316406 14.089844 C 2.542969 9.839844 6.9375 6.566406 12.316406 5.265625 Z M 12.316406 5.265625 "/>
<path style=" stroke:none;fill-rule:nonzero;fill:rgb(0%,0%,0%);fill-opacity:1;" d="M 16.722656 0 C 14.234375 0.109375 11.878906 0.742188 9.761719 1.785156 C 10.660156 1.917969 11.648438 2.230469 12.476562 2.914062 C 13.113281 3.445312 13.578125 4.128906 13.863281 4.953125 C 14.792969 4.796875 15.75 4.703125 16.722656 4.667969 Z M 16.722656 0 "/>
<path style=" stroke:none;fill-rule:nonzero;fill:rgb(0%,0%,0%);fill-opacity:1;" d="M 25.941406 32.84375 C 26.128906 32.753906 30.671875 29.855469 28.945312 23.125 C 28.457031 21.214844 27.046875 19.535156 25.589844 17.75 C 23.367188 15.035156 20.851562 11.953125 20.789062 7.347656 C 20.785156 7.042969 20.796875 6.753906 20.820312 6.476562 C 19.992188 6.339844 19.144531 6.253906 18.277344 6.222656 L 18.277344 35 C 21.046875 34.878906 23.585938 33.988281 25.941406 32.84375 Z M 25.941406 32.84375 "/>
<path style=" stroke:none;fill-rule:nonzero;fill:rgb(0%,0%,0%);fill-opacity:1;" d="M 18.277344 0 L 18.277344 4.667969 C 19.25 4.703125 20.207031 4.796875 21.136719 4.953125 C 21.421875 4.125 21.886719 3.445312 22.523438 2.914062 C 23.351562 2.230469 24.339844 1.917969 25.238281 1.785156 C 23.121094 0.742188 20.765625 0.109375 18.277344 0 Z M 18.277344 0 "/>
<path style=" stroke:none;fill-rule:nonzero;fill:rgb(0%,0%,0%);fill-opacity:1;" d="M 0.261719 20.625 C 0.546875 23.796875 2.230469 26.605469 4.230469 28.925781 C 3.871094 27.355469 3.84375 25.316406 4.554688 22.714844 C 5.160156 20.492188 6.640625 18.683594 8.207031 16.765625 C 10.367188 14.125 12.601562 11.390625 12.65625 7.324219 C 12.660156 7.140625 12.65625 6.960938 12.644531 6.785156 C 5.511719 8.519531 -0.3125 14.207031 0.261719 20.625 Z M 0.261719 20.625 "/>
<path style=" stroke:none;fill-rule:nonzero;fill:rgb(0%,0%,0%);fill-opacity:1;" d="M 27.765625 3.3125 C 26.914062 3.230469 24.703125 3.125 23.511719 4.117188 C 23.152344 4.414062 22.875 4.800781 22.683594 5.265625 C 28.0625 6.566406 32.457031 9.839844 34.683594 14.089844 C 33.8125 9.679688 31.277344 5.863281 27.765625 3.3125 Z M 27.765625 3.3125 "/>
<path style=" stroke:none;fill-rule:nonzero;fill:rgb(0%,0%,0%);fill-opacity:1;" d="M 34.738281 20.625 C 35.3125 14.207031 29.488281 8.519531 22.355469 6.785156 C 22.34375 6.960938 22.339844 7.140625 22.34375 7.324219 C 22.398438 11.390625 24.632812 14.125 26.792969 16.765625 C 28.359375 18.683594 29.839844 20.492188 30.445312 22.714844 C 31.15625 25.316406 31.128906 27.355469 30.769531 28.925781 C 32.769531 26.605469 34.453125 23.796875 34.738281 20.625 Z M 34.738281 20.625 "/>
<path style=" stroke:none;fill-rule:nonzero;fill:rgb(0%,0%,0%);fill-opacity:1;" d="M 8.929688 32.84375 C 11.292969 33.972656 13.953125 34.878906 16.722656 35 L 16.722656 6.222656 C 15.855469 6.253906 15.007812 6.339844 14.179688 6.476562 C 14.203125 6.753906 14.214844 7.042969 14.210938 7.347656 C 14.148438 11.953125 11.632812 15.035156 9.410156 17.75 C 7.953125 19.535156 6.550781 21.214844 6.050781 23.125 C 4.226562 30.117188 8.882812 32.824219 8.929688 32.84375 Z M 8.929688 32.84375 "/>
</g>
</svg>
