<?xml version="1.0" encoding="UTF-8"?>
<svg xmlns="http://www.w3.org/2000/svg" xmlns:xlink="http://www.w3.org/1999/xlink" width="35pt" height="35pt" viewBox="0 0 35 35" version="1.1">
<g id="surface1">
<path style=" stroke:none;fill-rule:nonzero;fill:rgb(100%,59.607843%,6.666667%);fill-opacity:1;" d="M 7.03125 32.273438 L 7.574219 35 L 21.210938 32.273438 Z M 7.03125 32.273438 "/>
<path style=" stroke:none;fill-rule:nonzero;fill:rgb(100%,59.607843%,6.666667%);fill-opacity:1;" d="M 27.953125 30.925781 L 34.316406 29.652344 L 28.96875 2.90625 L 18.511719 5 L 27.953125 5 Z M 27.953125 30.925781 "/>
<path style=" stroke:none;fill-rule:nonzero;fill:rgb(100%,91.372549%,56.078431%);fill-opacity:1;" d="M 14.316406 13.636719 C 12.0625 13.636719 10.226562 11.800781 10.226562 9.546875 L 10.226562 7.726562 L 12.953125 7.726562 L 12.953125 9.546875 C 12.953125 10.296875 13.566406 10.910156 14.316406 10.910156 L 14.316406 5 L 0.683594 5 L 0.683594 32.273438 L 14.316406 32.273438 Z M 14.316406 13.636719 "/>
<path style=" stroke:none;fill-rule:nonzero;fill:rgb(100%,85.490196%,26.666667%);fill-opacity:1;" d="M 27.953125 30.925781 L 27.953125 5 L 18.410156 5 L 18.410156 9.546875 C 18.410156 11.800781 16.574219 13.636719 14.316406 13.636719 L 14.316406 32.273438 L 27.953125 32.273438 Z M 27.953125 30.925781 "/>
<path style=" stroke:none;fill-rule:nonzero;fill:rgb(100%,85.490196%,26.666667%);fill-opacity:1;" d="M 15.683594 9.546875 L 15.683594 5 L 14.316406 5 L 14.316406 10.910156 C 15.070312 10.910156 15.683594 10.296875 15.683594 9.546875 Z M 15.683594 9.546875 "/>
<path style=" stroke:none;fill-rule:nonzero;fill:rgb(33.72549%,33.72549%,34.901961%);fill-opacity:1;" d="M 12.953125 4.089844 C 12.953125 3.339844 13.566406 2.726562 14.316406 2.726562 C 15.070312 2.726562 15.683594 3.339844 15.683594 4.089844 L 15.683594 9.546875 C 15.683594 10.296875 15.070312 10.910156 14.316406 10.910156 C 13.566406 10.910156 12.953125 10.296875 12.953125 9.546875 L 12.953125 7.726562 L 10.226562 7.726562 L 10.226562 9.546875 C 10.226562 11.800781 12.0625 13.636719 14.316406 13.636719 C 16.574219 13.636719 18.410156 11.800781 18.410156 9.546875 L 18.410156 4.089844 C 18.410156 1.835938 16.574219 0 14.316406 0 C 12.0625 0 10.226562 1.835938 10.226562 4.089844 L 10.226562 5 L 12.953125 5 Z M 12.953125 4.089844 "/>
</g>
</svg>
