<?xml version="1.0" encoding="UTF-8"?>
<svg xmlns="http://www.w3.org/2000/svg" xmlns:xlink="http://www.w3.org/1999/xlink" width="35pt" height="35pt" viewBox="0 0 35 35" version="1.1">
<g id="surface1">
<path style=" stroke:none;fill-rule:nonzero;fill:rgb(89.019608%,90.196078%,91.372549%);fill-opacity:1;" d="M 34.140625 32.941406 C 34.132812 32.945312 34.125 32.945312 34.113281 32.949219 C 34.125 32.945312 34.132812 32.945312 34.140625 32.941406 Z M 34.140625 32.941406 "/>
<path style=" stroke:none;fill-rule:nonzero;fill:rgb(89.019608%,90.196078%,91.372549%);fill-opacity:1;" d="M 34.378906 32.859375 C 34.371094 32.863281 34.363281 32.867188 34.351562 32.871094 C 34.363281 32.867188 34.371094 32.863281 34.378906 32.859375 Z M 34.378906 32.859375 "/>
<path style=" stroke:none;fill-rule:nonzero;fill:rgb(89.019608%,90.196078%,91.372549%);fill-opacity:1;" d="M 34.484375 32.800781 C 34.472656 32.808594 34.464844 32.8125 34.453125 32.820312 C 34.464844 32.8125 34.472656 32.808594 34.484375 32.800781 Z M 34.484375 32.800781 "/>
<path style=" stroke:none;fill-rule:nonzero;fill:rgb(89.019608%,90.196078%,91.372549%);fill-opacity:1;" d="M 34.25 32.914062 C 34.246094 32.914062 34.238281 32.917969 34.230469 32.917969 C 34.238281 32.917969 34.246094 32.914062 34.25 32.914062 Z M 34.25 32.914062 "/>
<path style=" stroke:none;fill-rule:nonzero;fill:rgb(89.019608%,90.196078%,91.372549%);fill-opacity:1;" d="M 34.285156 26.328125 L 18.902344 1.019531 C 18.601562 0.527344 18.078125 0.234375 17.5 0.234375 C 16.921875 0.234375 16.398438 0.527344 16.097656 1.019531 L 0.714844 26.328125 C 0.246094 27.097656 0 27.980469 0 28.882812 L 0 28.894531 L 5.53125 27.464844 L 5.46875 26.601562 C 5.46875 26.566406 5.46875 26.53125 5.472656 26.496094 L 6.019531 22.121094 C 6.054688 21.847656 6.285156 21.640625 6.5625 21.640625 L 9.84375 21.640625 C 10.121094 21.640625 10.351562 21.847656 10.386719 22.121094 L 10.882812 26.085938 L 13.429688 25.425781 L 14.511719 11.710938 L 14.765625 8.472656 C 14.78125 8.316406 14.859375 8.175781 14.984375 8.078125 L 16.515625 6.933594 C 17.09375 6.496094 17.90625 6.496094 18.484375 6.933594 L 20.015625 8.078125 C 20.140625 8.175781 20.21875 8.316406 20.234375 8.472656 L 20.488281 11.710938 L 21.570312 25.425781 L 24.117188 26.085938 L 24.613281 22.121094 C 24.648438 21.847656 24.878906 21.640625 25.15625 21.640625 L 28.4375 21.640625 C 28.714844 21.640625 28.945312 21.847656 28.980469 22.121094 L 29.527344 26.496094 C 29.53125 26.53125 29.53125 26.566406 29.53125 26.601562 L 29.46875 27.464844 L 35 28.894531 L 35 28.882812 C 35 27.980469 34.753906 27.097656 34.285156 26.328125 Z M 34.285156 26.328125 "/>
<path style=" stroke:none;fill-rule:nonzero;fill:rgb(71.372549%,72.156863%,74.509804%);fill-opacity:1;" d="M 24.0625 26.601562 C 24.0625 26.566406 24.0625 26.53125 24.066406 26.496094 L 24.117188 26.085938 L 21.570312 25.425781 L 21.875 29.253906 C 21.886719 29.40625 21.832031 29.558594 21.730469 29.667969 C 21.625 29.78125 21.480469 29.84375 21.328125 29.84375 L 21.261719 29.84375 L 24.351562 30.617188 Z M 24.0625 26.601562 "/>
<path style=" stroke:none;fill-rule:nonzero;fill:rgb(71.372549%,72.156863%,74.509804%);fill-opacity:1;" d="M 29.15625 31.816406 L 33.636719 32.933594 C 33.675781 32.945312 33.714844 32.953125 33.753906 32.957031 C 33.753906 32.957031 33.757812 32.957031 33.757812 32.957031 C 33.796875 32.964844 33.839844 32.964844 33.878906 32.96875 C 33.878906 32.96875 33.882812 32.96875 33.882812 32.96875 C 33.890625 32.96875 33.898438 32.96875 33.910156 32.96875 C 33.941406 32.96875 33.972656 32.96875 34.003906 32.964844 C 34.042969 32.960938 34.078125 32.953125 34.113281 32.949219 C 34.125 32.945312 34.132812 32.945312 34.140625 32.941406 C 34.171875 32.9375 34.199219 32.929688 34.230469 32.917969 C 34.238281 32.917969 34.246094 32.914062 34.25 32.914062 C 34.285156 32.902344 34.320312 32.886719 34.351562 32.871094 C 34.363281 32.867188 34.371094 32.863281 34.378906 32.859375 C 34.40625 32.847656 34.429688 32.835938 34.453125 32.820312 C 34.464844 32.8125 34.472656 32.808594 34.484375 32.800781 C 34.515625 32.78125 34.546875 32.761719 34.574219 32.738281 C 34.84375 32.53125 35 32.214844 35 31.875 L 35 28.894531 L 29.46875 27.464844 Z M 29.15625 31.816406 "/>
<path style=" stroke:none;fill-rule:nonzero;fill:rgb(71.372549%,72.156863%,74.509804%);fill-opacity:1;" d="M 13.269531 29.667969 C 13.167969 29.558594 13.113281 29.40625 13.125 29.253906 L 13.429688 25.425781 L 10.882812 26.085938 L 10.933594 26.496094 C 10.9375 26.53125 10.9375 26.566406 10.9375 26.601562 L 10.648438 30.617188 L 13.738281 29.84375 L 13.671875 29.84375 C 13.519531 29.84375 13.375 29.78125 13.269531 29.667969 Z M 13.269531 29.667969 "/>
<path style=" stroke:none;fill-rule:nonzero;fill:rgb(71.372549%,72.156863%,74.509804%);fill-opacity:1;" d="M 0 28.894531 L 0 31.875 C 0 32.214844 0.15625 32.53125 0.425781 32.738281 C 0.617188 32.890625 0.851562 32.96875 1.089844 32.96875 C 1.183594 32.96875 1.273438 32.957031 1.363281 32.933594 L 5.84375 31.816406 L 5.53125 27.464844 Z M 0 28.894531 "/>
<path style=" stroke:none;fill-rule:nonzero;fill:rgb(53.333333%,52.54902%,57.647059%);fill-opacity:1;" d="M 21.730469 29.667969 C 21.832031 29.558594 21.886719 29.40625 21.875 29.253906 L 21.570312 25.425781 L 20.488281 11.710938 L 18.171875 9.972656 C 18.128906 9.941406 18.089844 9.914062 18.046875 9.890625 L 18.046875 9.90625 C 17.703125 9.710938 17.292969 9.710938 16.953125 9.90625 L 16.953125 9.890625 C 16.910156 9.914062 16.867188 9.941406 16.828125 9.972656 L 14.511719 11.710938 L 13.429688 25.425781 L 13.125 29.253906 C 13.113281 29.40625 13.167969 29.558594 13.269531 29.667969 C 13.375 29.78125 13.519531 29.84375 13.671875 29.84375 L 16.953125 29.84375 L 16.953125 22.1875 C 16.953125 21.886719 17.199219 21.640625 17.5 21.640625 C 17.800781 21.640625 18.046875 21.886719 18.046875 22.1875 L 18.046875 29.84375 L 21.328125 29.84375 C 21.480469 29.84375 21.625 29.78125 21.730469 29.667969 Z M 21.730469 29.667969 "/>
<path style=" stroke:none;fill-rule:nonzero;fill:rgb(36.078431%,32.941176%,41.568627%);fill-opacity:1;" d="M 16.953125 9.890625 L 16.953125 6.699219 C 17.304688 6.578125 17.695312 6.578125 18.046875 6.699219 L 18.046875 9.890625 C 18.089844 9.914062 18.128906 9.941406 18.171875 9.972656 L 20.488281 11.710938 L 20.234375 8.472656 C 20.21875 8.316406 20.140625 8.175781 20.015625 8.078125 L 18.484375 6.933594 C 17.90625 6.496094 17.09375 6.496094 16.515625 6.933594 L 14.984375 8.078125 C 14.859375 8.175781 14.78125 8.316406 14.765625 8.472656 L 14.511719 11.710938 L 16.828125 9.972656 C 16.871094 9.941406 16.910156 9.914062 16.953125 9.890625 Z M 16.953125 9.890625 "/>
<path style=" stroke:none;fill-rule:nonzero;fill:rgb(53.333333%,52.54902%,57.647059%);fill-opacity:1;" d="M 29.46875 27.464844 L 29.53125 26.601562 C 29.53125 26.566406 29.53125 26.53125 29.527344 26.496094 C 29.53125 26.519531 29.527344 26.542969 29.527344 26.5625 L 24.066406 26.5625 C 24.066406 26.542969 24.0625 26.519531 24.066406 26.496094 C 24.0625 26.53125 24.0625 26.566406 24.0625 26.601562 L 24.351562 30.617188 L 24.609375 34.257812 C 24.632812 34.546875 24.871094 34.765625 25.15625 34.765625 L 28.4375 34.765625 C 28.722656 34.765625 28.960938 34.546875 28.984375 34.257812 L 29.15625 31.816406 Z M 29.46875 27.464844 "/>
<path style=" stroke:none;fill-rule:nonzero;fill:rgb(36.078431%,32.941176%,41.568627%);fill-opacity:1;" d="M 17.5 21.640625 C 17.199219 21.640625 16.953125 21.886719 16.953125 22.1875 L 16.953125 34.21875 C 16.953125 34.523438 17.199219 34.765625 17.5 34.765625 C 17.800781 34.765625 18.046875 34.523438 18.046875 34.21875 L 18.046875 22.1875 C 18.046875 21.886719 17.800781 21.640625 17.5 21.640625 Z M 17.5 21.640625 "/>
<path style=" stroke:none;fill-rule:nonzero;fill:rgb(36.078431%,32.941176%,41.568627%);fill-opacity:1;" d="M 24.066406 26.5625 L 29.527344 26.5625 C 29.527344 26.542969 29.53125 26.519531 29.527344 26.496094 L 28.980469 22.121094 C 28.945312 21.847656 28.714844 21.640625 28.4375 21.640625 L 25.15625 21.640625 C 24.878906 21.640625 24.648438 21.847656 24.613281 22.121094 L 24.117188 26.085938 L 24.066406 26.496094 C 24.0625 26.519531 24.066406 26.542969 24.066406 26.5625 Z M 24.066406 26.5625 "/>
<path style=" stroke:none;fill-rule:nonzero;fill:rgb(53.333333%,52.54902%,57.647059%);fill-opacity:1;" d="M 10.933594 26.496094 C 10.9375 26.519531 10.933594 26.542969 10.933594 26.5625 L 5.472656 26.5625 C 5.472656 26.542969 5.46875 26.519531 5.472656 26.496094 C 5.46875 26.53125 5.46875 26.566406 5.46875 26.601562 L 5.53125 27.464844 L 5.84375 31.816406 L 6.015625 34.257812 C 6.039062 34.546875 6.277344 34.765625 6.5625 34.765625 L 9.84375 34.765625 C 10.128906 34.765625 10.367188 34.546875 10.390625 34.257812 L 10.648438 30.617188 L 10.9375 26.601562 C 10.9375 26.566406 10.9375 26.53125 10.933594 26.496094 Z M 10.933594 26.496094 "/>
<path style=" stroke:none;fill-rule:nonzero;fill:rgb(36.078431%,32.941176%,41.568627%);fill-opacity:1;" d="M 5.472656 26.5625 L 10.933594 26.5625 C 10.933594 26.542969 10.9375 26.519531 10.933594 26.496094 L 10.882812 26.085938 L 10.386719 22.121094 C 10.351562 21.847656 10.121094 21.640625 9.84375 21.640625 L 6.5625 21.640625 C 6.285156 21.640625 6.054688 21.847656 6.019531 22.121094 L 5.472656 26.496094 C 5.46875 26.519531 5.472656 26.542969 5.472656 26.5625 Z M 5.472656 26.5625 "/>
<path style=" stroke:none;fill-rule:nonzero;fill:rgb(71.372549%,72.156863%,74.509804%);fill-opacity:1;" d="M 16.953125 6.699219 L 16.953125 9.90625 C 17.296875 9.710938 17.703125 9.710938 18.046875 9.90625 L 18.046875 6.699219 C 17.695312 6.578125 17.304688 6.578125 16.953125 6.699219 Z M 16.953125 6.699219 "/>
</g>
</svg>
