<?xml version="1.0" encoding="UTF-8"?>
<svg xmlns="http://www.w3.org/2000/svg" xmlns:xlink="http://www.w3.org/1999/xlink" width="10pt" height="10pt" viewBox="0 0 10 10" version="1.1">
<g id="surface1">
<path style=" stroke:none;fill-rule:nonzero;fill:rgb(100%,100%,100%);fill-opacity:1;" d="M 9.957031 8.9375 C 9.972656 8.832031 10.304688 6.308594 8.820312 4.574219 C 7.910156 3.503906 6.503906 2.921875 4.6875 2.863281 L 4.675781 1.109375 C 4.675781 0.988281 4.605469 0.878906 4.5 0.828125 C 4.390625 0.777344 4.261719 0.792969 4.167969 0.867188 L 0.113281 4.191406 C 0.0429688 4.253906 0 4.339844 0 4.433594 C 0 4.527344 0.0429688 4.617188 0.113281 4.675781 L 4.167969 8.035156 C 4.257812 8.109375 4.390625 8.125 4.496094 8.074219 C 4.609375 8.023438 4.675781 7.914062 4.675781 7.792969 L 4.6875 6 C 9.0625 5.996094 9.375 8.800781 9.386719 8.917969 C 9.398438 9.074219 9.5 9.195312 9.65625 9.203125 C 9.660156 9.203125 9.664062 9.203125 9.667969 9.203125 C 9.824219 9.203125 9.933594 9.089844 9.957031 8.9375 Z M 4.144531 5.460938 C 4.085938 5.519531 4.050781 5.597656 4.050781 5.679688 L 4.050781 7.132812 L 0.804688 4.4375 L 4.050781 1.765625 L 4.050781 3.171875 C 4.050781 3.34375 4.191406 3.484375 4.363281 3.484375 C 6.144531 3.484375 7.5 4 8.34375 4.976562 C 8.976562 5.710938 9.269531 6.613281 9.371094 7.359375 C 8.6875 6.425781 7.492188 5.371094 4.363281 5.367188 C 4.28125 5.367188 4.203125 5.402344 4.144531 5.460938 Z M 4.144531 5.460938 "/>
</g>
</svg>
